<?xml version="1.0" encoding="utf-8"?>
<!-- Generator: Adobe Illustrator 24.3.0, SVG Export Plug-In . SVG Version: 6.00 Build 0)  -->
<svg version="1.1" id="Layer_1" xmlns="http://www.w3.org/2000/svg" xmlns:xlink="http://www.w3.org/1999/xlink" x="0px" y="0px"
	 viewBox="0 0 1080 590" style="enable-background:new 0 0 1080 590;" xml:space="preserve">
<style type="text/css">
	.st0{fill:#2A7DE1;}
	.st1{fill:#FFFFFF;}
	.st2{fill:#939598;}
</style>
<rect x="-3" width="1086" height="590"/>
<g>
	<g>
		<polygon class="st0" points="894.1,296.8 687.6,296.8 715.4,243.2 894.1,243.2 		"/>
	</g>
	<g>
		<path class="st1" d="M401.8,249.2v41.6h-5v-34.6l-21.1,25.6h-0.4l-21.1-25.6v34.6h-4.9v-41.6h5.5l20.8,25.4l20.8-25.4H401.8z"/>
		<path class="st1" d="M433.4,290.8v-41.6h5v41.6H433.4z"/>
		<path class="st1" d="M514.1,249.2v41.6h-4.4l-34.9-35.2v35.2H470v-41.6h5.4l33.9,34.3v-34.3H514.1z"/>
		<path class="st1" d="M584.4,253.7h-19.7v37.1h-5v-37.1h-19.6v-4.5h44.3V253.7z"/>
		<path class="st1" d="M610.6,249.2l17.5,22.5l17.3-22.5h5.9l-20.9,27v14.6h-5v-14.6l-20.9-27H610.6z"/>
		<path class="st1" d="M667.8,288.1c0-1.9,1.5-3.3,3.6-3.3c2.1,0,3.6,1.4,3.6,3.3c0,1.9-1.5,3.3-3.6,3.3
			C669.3,291.4,667.8,290,667.8,288.1z"/>
		<path d="M736.6,282h-25.1l-4.5,8.8h-10.2l22-41.6h10.4l22,41.6h-10.3L736.6,282z M732.7,274.3l-8.6-16.9l-8.6,16.9H732.7z"/>
		<path d="M811.2,290.8l-11.9-14.1h-15v14.1h-9.4v-41.6h28.7c10.2,0,17.8,4.7,17.8,13.7c0,7.1-4.7,11.5-11.6,13.1l12.8,14.8H811.2z
			 M803,268.8c5,0,8.7-1.2,8.7-5.8s-3.7-5.8-8.7-5.8h-18.8v11.6H803z"/>
		<path d="M888.1,257.4h-18.2v33.4h-9.5v-33.4h-18.1v-8.2h45.7V257.4z"/>
	</g>
	<g>
		<g>
			<path class="st1" d="M190.9,235.3l6.6,4.2v61.5l-6.6,4.2V235.3 M185.9,226.2v88.3l16.6-10.7v-66.9L185.9,226.2L185.9,226.2z"/>
		</g>
		<g>
			<path class="st1" d="M293.4,235.3v69.9l-6.6-4.2v-61.5L293.4,235.3 M298.4,226.2l-16.6,10.7v66.9l16.6,10.7V226.2L298.4,226.2z"
				/>
		</g>
		<g>
			<g>
				<polygon class="st0" points="242.7,271.4 190.9,238.3 190.9,232.4 242.7,265.5 293.4,233.2 293.4,239.1 				"/>
			</g>
		</g>
		<g>
			<g>
				<polygon class="st0" points="242.7,285.4 190.9,252.3 190.9,246.4 242.7,279.5 293.4,247.2 293.4,253.1 				"/>
			</g>
		</g>
	</g>
	<g>
		<path class="st2" d="M464.6,347c0,7-2.1,10.3-8.5,10.3c-1.1,0-2.5-0.1-3.3-0.2c-0.2,0-0.3,0-0.3,0.3v6.1c0,0.2-0.1,0.4-0.4,0.4
			h-1.8c-0.2,0-0.4-0.1-0.4-0.4v-24.8c0-0.2,0.1-0.3,0.4-0.4c1.6-0.3,3.6-0.7,5.6-0.7C463,337.6,464.6,340.2,464.6,347z
			 M452.6,354.5c0,0.3,0,0.4,0.3,0.5c0.9,0.1,2,0.3,3.1,0.3c4.7,0,5.9-2.1,5.9-8.3c0-5.9-1.3-7.4-5.9-7.4c-1.4,0-2.4,0.1-3.1,0.3
			c-0.3,0.1-0.3,0.3-0.3,0.5V354.5z"/>
		<path class="st2" d="M470.7,333.8c-0.2,0-0.4-0.1-0.4-0.4v-2.4c0-0.2,0.1-0.4,0.4-0.4h2.2c0.2,0,0.4,0.1,0.4,0.4v2.4
			c0,0.2-0.1,0.4-0.4,0.4H470.7z M470.9,357.3c-0.2,0-0.4-0.1-0.4-0.4v-18.6c0-0.2,0.1-0.4,0.4-0.4h1.8c0.2,0,0.4,0.1,0.4,0.4v18.6
			c0,0.2-0.1,0.4-0.4,0.4H470.9z"/>
		<path class="st2" d="M492.7,355.8c-1.2,1.4-3,1.9-5.8,1.9c-2.9,0-4.5-0.5-5.7-1.9c-1.3-1.5-2.2-4.7-2.2-8.3c0-3.7,0.8-6.5,2.2-8
			c1.2-1.4,2.9-1.9,5.8-1.9c2.9,0,4.6,0.5,5.8,1.9c1.3,1.5,2.1,4.3,2.1,8C494.9,351.1,494,354.3,492.7,355.8z M483.3,354.6
			c0.7,0.7,1.4,1,3.6,1c2.4,0,3.1-0.3,3.8-1c1.1-1.1,1.6-3.9,1.6-7.1c0-3.3-0.5-5.8-1.6-6.9c-0.7-0.7-1.4-1-3.7-1
			c-2.4,0-3.1,0.3-3.8,1c-1.1,1.1-1.6,3.6-1.6,6.9C481.7,350.7,482.2,353.5,483.3,354.6z"/>
		<path class="st2" d="M514.6,343.8v13.1c0,0.2-0.1,0.4-0.4,0.4h-1.8c-0.2,0-0.4-0.1-0.4-0.4v-12.9c0-3.4-0.9-4.5-4.9-4.5
			c-1.5,0-3,0.1-3.8,0.3c-0.3,0.1-0.4,0.1-0.4,0.4v16.6c0,0.2-0.1,0.4-0.4,0.4h-1.8c-0.2,0-0.4-0.1-0.4-0.4v-18.3
			c0-0.2,0.1-0.3,0.4-0.4c2-0.4,4.6-0.7,6.4-0.7C512.9,337.6,514.6,338.9,514.6,343.8z"/>
		<path class="st2" d="M528.8,357.7c-7.3,0-8.8-4.5-8.8-10.1c0-5.7,1.8-10,7.8-10c6,0,7.1,3.5,7.1,8.3v0.8c0,1.4-0.3,1.6-0.9,1.6
			h-11.1c-0.2,0-0.2,0.1-0.2,0.3c0,5.2,1.9,7.1,6.7,7.1c1.6,0,3.4-0.4,4.5-0.9c0.3-0.1,0.5-0.1,0.5,0.2l0.1,1.3
			c0,0.2-0.1,0.3-0.3,0.4C532.8,357.3,530.9,357.7,528.8,357.7z M522.9,346.3h9.2c0.3,0,0.4-0.1,0.4-1.3c0-3.6-1-5.5-4.7-5.5
			c-4.2,0-5.2,3.1-5.2,6.5C522.7,346.2,522.7,346.3,522.9,346.3z"/>
		<path class="st2" d="M548.4,357.7c-7.3,0-8.8-4.5-8.8-10.1c0-5.7,1.8-10,7.8-10c6,0,7.1,3.5,7.1,8.3v0.8c0,1.4-0.3,1.6-0.9,1.6
			h-11.1c-0.2,0-0.2,0.1-0.2,0.3c0,5.2,1.9,7.1,6.7,7.1c1.6,0,3.4-0.4,4.5-0.9c0.3-0.1,0.5-0.1,0.5,0.2l0.1,1.3
			c0,0.2-0.1,0.3-0.3,0.4C552.3,357.3,550.5,357.7,548.4,357.7z M542.4,346.3h9.2c0.3,0,0.4-0.1,0.4-1.3c0-3.6-1-5.5-4.7-5.5
			c-4.2,0-5.2,3.1-5.2,6.5C542.2,346.2,542.3,346.3,542.4,346.3z"/>
		<path class="st2" d="M560.3,338.3c1.8-0.4,3.6-0.7,5.3-0.7c1.2,0,2.1,0,2.9,0.2c0.1,0,0.2,0.1,0.2,0.3l-0.2,1.7
			c0,0.1-0.1,0.2-0.3,0.2c-0.8-0.1-1.7-0.3-2.7-0.3c-0.8,0-2,0.1-2.8,0.4c-0.3,0.1-0.3,0.2-0.3,0.4v16.5c0,0.3-0.1,0.4-0.4,0.4h-1.8
			c-0.2,0-0.4-0.1-0.4-0.4v-18.3C559.9,338.4,560,338.3,560.3,338.3z"/>
		<path class="st2" d="M572.6,333.8c-0.2,0-0.4-0.1-0.4-0.4v-2.4c0-0.2,0.1-0.4,0.4-0.4h2.2c0.2,0,0.4,0.1,0.4,0.4v2.4
			c0,0.2-0.1,0.4-0.4,0.4H572.6z M572.8,357.3c-0.2,0-0.4-0.1-0.4-0.4v-18.6c0-0.2,0.1-0.4,0.4-0.4h1.8c0.2,0,0.4,0.1,0.4,0.4v18.6
			c0,0.2-0.1,0.4-0.4,0.4H572.8z"/>
		<path class="st2" d="M595.9,343.8v13.1c0,0.2-0.1,0.4-0.4,0.4h-1.8c-0.2,0-0.4-0.1-0.4-0.4v-12.9c0-3.4-0.9-4.5-4.9-4.5
			c-1.5,0-3,0.1-3.8,0.3c-0.3,0.1-0.4,0.1-0.4,0.4v16.6c0,0.2-0.1,0.4-0.4,0.4h-1.8c-0.2,0-0.4-0.1-0.4-0.4v-18.3
			c0-0.2,0.1-0.3,0.4-0.4c2-0.4,4.6-0.7,6.4-0.7C594.1,337.6,595.9,338.9,595.9,343.8z"/>
		<path class="st2" d="M616,357c0,5.5-2.6,6.8-7.5,6.8c-2,0-4.7-0.3-6.2-0.8c-0.2-0.1-0.2-0.3-0.2-0.4l0.2-1.3
			c0.1-0.2,0.3-0.3,0.5-0.2c1.2,0.4,3.7,0.7,5.4,0.7c4.4,0,5.2-1.2,5.2-5.6c0-0.2-0.1-0.3-0.3-0.3c-0.9,0.1-2.4,0.3-3.4,0.3
			c-6.5,0-8.4-2.4-8.4-9.2c0-6.6,2.2-9.5,8.4-9.5c1.7,0,3.9,0.2,5.9,0.6c0.3,0.1,0.4,0.2,0.4,0.4V357z M613.1,354
			c0.3-0.1,0.3-0.2,0.3-0.5v-13.1c0-0.2,0-0.4-0.3-0.4c-0.7-0.2-2.1-0.3-3.4-0.3c-4.4,0-5.6,1.6-5.6,7.3s0.9,7.4,5.7,7.4
			C611.3,354.3,612.5,354.2,613.1,354z"/>
		<path class="st2" d="M628.8,347.6c0-7,2.2-10.1,8.6-10.1c1.2,0,2.5,0.2,3.2,0.3c0.2,0,0.3-0.1,0.3-0.3v-6.6c0-0.2,0.1-0.4,0.4-0.4
			h1.8c0.2,0,0.4,0.1,0.4,0.4v25.6c0,0.2-0.1,0.3-0.4,0.4c-1.6,0.4-3.5,0.7-5.6,0.7C630.5,357.7,628.8,354.5,628.8,347.6z
			 M640.9,340.5c0-0.3,0-0.4-0.3-0.5c-0.7-0.2-2-0.4-3.2-0.4c-4.7,0-5.9,1.8-5.9,8c0,6,1.1,8,5.9,8c1.2,0,2.4-0.1,3.1-0.3
			c0.3-0.1,0.3-0.3,0.3-0.5V340.5z"/>
		<path class="st2" d="M650.3,333.8c-0.2,0-0.4-0.1-0.4-0.4v-2.4c0-0.2,0.1-0.4,0.4-0.4h2.2c0.2,0,0.4,0.1,0.4,0.4v2.4
			c0,0.2-0.1,0.4-0.4,0.4H650.3z M650.5,357.3c-0.2,0-0.4-0.1-0.4-0.4v-18.6c0-0.2,0.1-0.4,0.4-0.4h1.8c0.2,0,0.4,0.1,0.4,0.4v18.6
			c0,0.2-0.1,0.4-0.4,0.4H650.5z"/>
		<path class="st2" d="M673.3,357c0,5.5-2.6,6.8-7.5,6.8c-2,0-4.7-0.3-6.2-0.8c-0.2-0.1-0.2-0.3-0.2-0.4l0.2-1.3
			c0.1-0.2,0.3-0.3,0.5-0.2c1.2,0.4,3.7,0.7,5.4,0.7c4.4,0,5.2-1.2,5.2-5.6c0-0.2-0.1-0.3-0.3-0.3c-0.9,0.1-2.4,0.3-3.4,0.3
			c-6.5,0-8.4-2.4-8.4-9.2c0-6.6,2.2-9.5,8.4-9.5c1.7,0,3.9,0.2,5.9,0.6c0.3,0.1,0.4,0.2,0.4,0.4V357z M670.5,354
			c0.3-0.1,0.3-0.2,0.3-0.5v-13.1c0-0.2,0-0.4-0.3-0.4c-0.7-0.2-2.1-0.3-3.4-0.3c-4.4,0-5.6,1.6-5.6,7.3s0.9,7.4,5.7,7.4
			C668.7,354.3,669.8,354.2,670.5,354z"/>
		<path class="st2" d="M680.1,333.8c-0.2,0-0.4-0.1-0.4-0.4v-2.4c0-0.2,0.1-0.4,0.4-0.4h2.2c0.2,0,0.4,0.1,0.4,0.4v2.4
			c0,0.2-0.1,0.4-0.4,0.4H680.1z M680.3,357.3c-0.2,0-0.4-0.1-0.4-0.4v-18.6c0-0.2,0.1-0.4,0.4-0.4h1.8c0.2,0,0.4,0.1,0.4,0.4v18.6
			c0,0.2-0.1,0.4-0.4,0.4H680.3z"/>
		<path class="st2" d="M693.7,357.6c-2.8,0-3.5-1.5-3.5-3.6v-13.8c0-0.1-0.1-0.2-0.2-0.2h-3c-0.2,0-0.4-0.1-0.4-0.4v-1.3
			c0-0.2,0.1-0.4,0.4-0.4h3c0.1,0,0.2-0.1,0.2-0.2v-4.5c0-0.2,0.1-0.4,0.4-0.4h1.8c0.2,0,0.4,0.1,0.4,0.4v4.5c0,0.1,0.1,0.2,0.2,0.2
			h3.4c0.2,0,0.4,0.1,0.4,0.4v1.3c0,0.2-0.1,0.4-0.4,0.4H693c-0.1,0-0.2,0.1-0.2,0.2v13.4c0,1.7,0.3,2.1,1.8,2.1h1.4
			c0.2,0,0.4,0.1,0.4,0.3l0,1c0,0.2-0.1,0.4-0.3,0.4C695.4,357.5,694.5,357.6,693.7,357.6z"/>
		<path class="st2" d="M701.9,340.1c-0.2,0-0.4,0-0.4-0.2l-0.2-1.2c0-0.2,0-0.4,0.2-0.5c1.4-0.4,3.3-0.7,5.4-0.7
			c4.5,0,6.4,1.7,6.4,5.9v13.1c0,0.3-0.1,0.5-0.4,0.6c-1.1,0.3-3.2,0.5-5.3,0.5c-6,0-7.8-1.3-7.8-5.3c0-3.4,0.8-5.3,6-5.8l4.9-0.5
			c0.1,0,0.2-0.1,0.2-0.3v-2c0-3.2-1.1-4.2-4.4-4.2C704.9,339.7,703.1,339.9,701.9,340.1z M710.8,348.4c0-0.1-0.1-0.2-0.2-0.2h-4
			c-3.4,0-4.3,0.9-4.3,3.9c0,3,0.9,3.7,5,3.7c1.1,0,2.6-0.1,3.1-0.2c0.3-0.1,0.4-0.1,0.4-0.3V348.4z"/>
		<path class="st2" d="M723.2,357.6c-2.8,0-3.6-1.1-3.6-4.7v-21.9c0-0.2,0.1-0.4,0.4-0.4h1.8c0.2,0,0.4,0.1,0.4,0.4V353
			c0,2.1,0.3,2.7,1.8,2.7h1.5c0.2,0,0.3,0.1,0.3,0.3l-0.1,1.1c0,0.2-0.1,0.3-0.3,0.3C724.8,357.5,724.2,357.6,723.2,357.6z"/>
		<path class="st2" d="M751.6,347c0,7-2.1,10.3-8.5,10.3c-1,0-2.5-0.1-3.3-0.2c-0.2,0-0.3,0-0.3,0.3v6.1c0,0.2-0.1,0.4-0.4,0.4h-1.8
			c-0.2,0-0.4-0.1-0.4-0.4v-24.8c0-0.2,0.1-0.3,0.4-0.4c1.6-0.3,3.6-0.7,5.6-0.7C750,337.6,751.6,340.2,751.6,347z M739.5,354.5
			c0,0.3,0,0.4,0.3,0.5c0.9,0.1,2,0.3,3.1,0.3c4.7,0,5.9-2.1,5.9-8.3c0-5.9-1.3-7.4-5.9-7.4c-1.4,0-2.4,0.1-3.1,0.3
			c-0.3,0.1-0.3,0.3-0.3,0.5V354.5z"/>
		<path class="st2" d="M758.5,340.1c-0.2,0-0.4,0-0.4-0.2l-0.2-1.2c0-0.2,0-0.4,0.2-0.5c1.4-0.4,3.3-0.7,5.4-0.7
			c4.5,0,6.4,1.7,6.4,5.9v13.1c0,0.3-0.1,0.5-0.4,0.6c-1.1,0.3-3.2,0.5-5.3,0.5c-6,0-7.8-1.3-7.8-5.3c0-3.4,0.8-5.3,6-5.8l4.9-0.5
			c0.1,0,0.2-0.1,0.2-0.3v-2c0-3.2-1.1-4.2-4.4-4.2C761.6,339.7,759.7,339.9,758.5,340.1z M767.5,348.4c0-0.1-0.1-0.2-0.2-0.2h-4
			c-3.4,0-4.3,0.9-4.3,3.9c0,3,0.9,3.7,5,3.7c1.1,0,2.6-0.1,3.1-0.2c0.3-0.1,0.4-0.1,0.4-0.3V348.4z"/>
		<path class="st2" d="M780.8,357.6c-2.8,0-3.5-1.5-3.5-3.6v-13.8c0-0.1-0.1-0.2-0.2-0.2h-3c-0.2,0-0.4-0.1-0.4-0.4v-1.3
			c0-0.2,0.1-0.4,0.4-0.4h3c0.1,0,0.2-0.1,0.2-0.2v-4.5c0-0.2,0.1-0.4,0.4-0.4h1.8c0.2,0,0.4,0.1,0.4,0.4v4.5c0,0.1,0.1,0.2,0.2,0.2
			h3.4c0.2,0,0.4,0.1,0.4,0.4v1.3c0,0.2-0.1,0.4-0.4,0.4h-3.4c-0.1,0-0.2,0.1-0.2,0.2v13.4c0,1.7,0.3,2.1,1.8,2.1h1.4
			c0.2,0,0.4,0.1,0.4,0.3l0,1c0,0.2-0.1,0.4-0.3,0.4C782.5,357.5,781.7,357.6,780.8,357.6z"/>
		<path class="st2" d="M788.1,338.3c1.8-0.4,3.6-0.7,5.3-0.7c1.2,0,2.1,0,2.9,0.2c0.1,0,0.2,0.1,0.2,0.3l-0.2,1.7
			c0,0.1-0.1,0.2-0.3,0.2c-0.8-0.1-1.7-0.3-2.7-0.3c-0.8,0-2,0.1-2.8,0.4c-0.3,0.1-0.3,0.2-0.3,0.4v16.5c0,0.3-0.1,0.4-0.4,0.4h-1.8
			c-0.2,0-0.4-0.1-0.4-0.4v-18.3C787.8,338.4,787.9,338.3,788.1,338.3z"/>
		<path class="st2" d="M812.5,355.8c-1.2,1.4-3,1.9-5.8,1.9c-2.9,0-4.5-0.5-5.7-1.9c-1.3-1.5-2.2-4.7-2.2-8.3c0-3.7,0.8-6.5,2.2-8
			c1.2-1.4,2.9-1.9,5.8-1.9c2.9,0,4.6,0.5,5.8,1.9c1.3,1.5,2.1,4.3,2.1,8C814.7,351.1,813.8,354.3,812.5,355.8z M803.1,354.6
			c0.7,0.7,1.4,1,3.6,1c2.4,0,3.1-0.3,3.8-1c1-1.1,1.6-3.9,1.6-7.1c0-3.3-0.5-5.8-1.6-6.9c-0.7-0.7-1.4-1-3.7-1
			c-2.4,0-3.1,0.3-3.8,1c-1.1,1.1-1.6,3.6-1.6,6.9C801.4,350.7,802,353.5,803.1,354.6z"/>
		<path class="st2" d="M834.4,343.8v13.1c0,0.2-0.1,0.4-0.4,0.4h-1.8c-0.2,0-0.4-0.1-0.4-0.4v-12.9c0-3.4-0.9-4.5-4.9-4.5
			c-1.5,0-3,0.1-3.8,0.3c-0.3,0.1-0.4,0.1-0.4,0.4v16.6c0,0.2-0.1,0.4-0.4,0.4h-1.8c-0.2,0-0.4-0.1-0.4-0.4v-18.3
			c0-0.2,0.1-0.3,0.4-0.4c2-0.4,4.6-0.7,6.4-0.7C832.7,337.6,834.4,338.9,834.4,343.8z"/>
		<path class="st2" d="M841.9,340.1c-0.2,0-0.4,0-0.4-0.2l-0.2-1.2c0-0.2,0-0.4,0.2-0.5c1.4-0.4,3.3-0.7,5.4-0.7
			c4.5,0,6.4,1.7,6.4,5.9v13.1c0,0.3-0.1,0.5-0.4,0.6c-1.1,0.3-3.2,0.5-5.3,0.5c-6,0-7.8-1.3-7.8-5.3c0-3.4,0.8-5.3,6-5.8l4.9-0.5
			c0.1,0,0.2-0.1,0.2-0.3v-2c0-3.2-1.1-4.2-4.4-4.2C844.9,339.7,843,339.9,841.9,340.1z M850.8,348.4c0-0.1-0.1-0.2-0.2-0.2h-4
			c-3.4,0-4.3,0.9-4.3,3.9c0,3,0.9,3.7,5,3.7c1.1,0,2.6-0.1,3.1-0.2c0.3-0.1,0.4-0.1,0.4-0.3V348.4z"/>
		<path class="st2" d="M873.6,357c0,5.5-2.6,6.8-7.5,6.8c-2,0-4.7-0.3-6.2-0.8c-0.2-0.1-0.2-0.3-0.2-0.4l0.2-1.3
			c0.1-0.2,0.3-0.3,0.5-0.2c1.2,0.4,3.7,0.7,5.4,0.7c4.4,0,5.2-1.2,5.2-5.6c0-0.2-0.1-0.3-0.3-0.3c-0.9,0.1-2.4,0.3-3.4,0.3
			c-6.5,0-8.4-2.4-8.4-9.2c0-6.6,2.2-9.5,8.4-9.5c1.7,0,3.9,0.2,5.9,0.6c0.3,0.1,0.4,0.2,0.4,0.4V357z M870.8,354
			c0.3-0.1,0.3-0.2,0.3-0.5v-13.1c0-0.2,0-0.4-0.3-0.4c-0.7-0.2-2.1-0.3-3.4-0.3c-4.4,0-5.6,1.6-5.6,7.3s0.9,7.4,5.7,7.4
			C869,354.3,870.2,354.2,870.8,354z"/>
		<path class="st2" d="M888,357.7c-7.3,0-8.8-4.5-8.8-10.1c0-5.7,1.8-10,7.8-10c6,0,7.1,3.5,7.1,8.3v0.8c0,1.4-0.3,1.6-0.9,1.6
			h-11.1c-0.2,0-0.2,0.1-0.2,0.3c0,5.2,1.9,7.1,6.7,7.1c1.6,0,3.4-0.4,4.5-0.9c0.3-0.1,0.5-0.1,0.5,0.2l0.1,1.3
			c0,0.2-0.1,0.3-0.3,0.4C892,357.3,890.1,357.7,888,357.7z M882.1,346.3h9.2c0.3,0,0.4-0.1,0.4-1.3c0-3.6-1-5.5-4.7-5.5
			c-4.2,0-5.2,3.1-5.2,6.5C881.9,346.2,881.9,346.3,882.1,346.3z"/>
	</g>
</g>
</svg>
