<?xml version="1.0" encoding="utf-8"?>
<!-- Generator: Adobe Illustrator 24.3.0, SVG Export Plug-In . SVG Version: 6.00 Build 0)  -->
<svg version="1.1" id="Layer_1" xmlns="http://www.w3.org/2000/svg" xmlns:xlink="http://www.w3.org/1999/xlink" x="0px" y="0px"
	 viewBox="0 0 1080 590" style="enable-background:new 0 0 1080 590;" xml:space="preserve">
<style type="text/css">
	.st0{fill:#2A7DE1;}
	.st1{fill:#FFFFFF;}
	.st2{fill:#939598;}
</style>
<rect x="-3" width="1086" height="590"/>
<g>
	<g>
		<polygon class="st0" points="812.4,288.3 605.9,288.3 633.7,234.7 812.4,234.7 		"/>
	</g>
	<g>
		<path class="st1" d="M320.1,240.7v41.6h-5v-34.6l-21.1,25.6h-0.4l-21.1-25.6v34.6h-4.9v-41.6h5.5l20.8,25.4l20.8-25.4H320.1z"/>
		<path class="st1" d="M351.7,282.3v-41.6h5v41.6H351.7z"/>
		<path class="st1" d="M432.4,240.7v41.6h-4.4l-34.9-35.2v35.2h-4.9v-41.6h5.4l33.9,34.3v-34.3H432.4z"/>
		<path class="st1" d="M502.7,245.2h-19.7v37.1h-5v-37.1h-19.6v-4.5h44.3V245.2z"/>
		<path class="st1" d="M528.9,240.7l17.5,22.5l17.3-22.5h5.9l-20.9,27v14.6h-5v-14.6l-20.9-27H528.9z"/>
		<path class="st1" d="M586.1,279.6c0-1.9,1.5-3.3,3.6-3.3s3.6,1.4,3.6,3.3c0,1.9-1.5,3.3-3.6,3.3S586.1,281.5,586.1,279.6z"/>
		<path d="M654.9,273.5h-25.1l-4.5,8.8h-10.2l22-41.6h10.4l22,41.6h-10.3L654.9,273.5z M651,265.8l-8.6-16.9l-8.6,16.9H651z"/>
		<path d="M729.5,282.3l-11.9-14.1h-15v14.1h-9.4v-41.6h28.7c10.2,0,17.8,4.7,17.8,13.7c0,7.1-4.7,11.5-11.6,13.1l12.8,14.8H729.5z
			 M721.3,260.3c5,0,8.7-1.2,8.7-5.8c0-4.6-3.7-5.8-8.7-5.8h-18.8v11.6H721.3z"/>
		<path d="M806.4,248.9h-18.2v33.4h-9.5v-33.4h-18.1v-8.2h45.7V248.9z"/>
	</g>
	<g>
		<path class="st2" d="M332.6,338.5c0,7-2.1,10.3-8.5,10.3c-1.1,0-2.5-0.1-3.3-0.2c-0.2,0-0.3,0-0.3,0.3v6.1c0,0.2-0.1,0.4-0.4,0.4
			h-1.8c-0.2,0-0.4-0.1-0.4-0.4v-24.8c0-0.2,0.1-0.3,0.4-0.4c1.6-0.3,3.6-0.7,5.6-0.7C330.9,329.1,332.6,331.7,332.6,338.5z
			 M320.5,346c0,0.3,0,0.4,0.3,0.5c0.9,0.1,2,0.3,3.1,0.3c4.7,0,5.9-2.1,5.9-8.3c0-5.9-1.3-7.4-5.9-7.4c-1.4,0-2.4,0.1-3.1,0.3
			c-0.3,0.1-0.3,0.3-0.3,0.5V346z"/>
		<path class="st2" d="M338.7,325.3c-0.2,0-0.4-0.1-0.4-0.4v-2.4c0-0.2,0.1-0.4,0.4-0.4h2.2c0.2,0,0.4,0.1,0.4,0.4v2.4
			c0,0.2-0.1,0.4-0.4,0.4H338.7z M338.9,348.8c-0.2,0-0.4-0.1-0.4-0.4v-18.6c0-0.2,0.1-0.4,0.4-0.4h1.8c0.2,0,0.4,0.1,0.4,0.4v18.6
			c0,0.2-0.1,0.4-0.4,0.4H338.9z"/>
		<path class="st2" d="M360.7,347.3c-1.2,1.4-3,1.9-5.8,1.9c-2.9,0-4.5-0.5-5.7-1.9c-1.3-1.5-2.2-4.7-2.2-8.3c0-3.7,0.8-6.5,2.2-8
			c1.2-1.4,2.9-1.9,5.8-1.9c2.9,0,4.6,0.5,5.8,1.9c1.3,1.5,2.1,4.3,2.1,8C362.8,342.6,362,345.7,360.7,347.3z M351.2,346.1
			c0.7,0.7,1.4,1,3.6,1c2.4,0,3.1-0.3,3.8-1c1.1-1.1,1.6-3.9,1.6-7.1c0-3.3-0.5-5.8-1.6-6.9c-0.7-0.7-1.4-1-3.7-1
			c-2.4,0-3.1,0.3-3.8,1c-1.1,1.1-1.6,3.6-1.6,6.9C349.6,342.2,350.1,345,351.2,346.1z"/>
		<path class="st2" d="M382.6,335.3v13.1c0,0.2-0.1,0.4-0.4,0.4h-1.8c-0.2,0-0.4-0.1-0.4-0.4v-12.9c0-3.4-0.9-4.5-4.9-4.5
			c-1.5,0-3,0.1-3.8,0.3c-0.3,0.1-0.4,0.1-0.4,0.4v16.6c0,0.2-0.1,0.4-0.4,0.4h-1.8c-0.2,0-0.4-0.1-0.4-0.4v-18.3
			c0-0.2,0.1-0.3,0.4-0.4c2-0.4,4.6-0.7,6.4-0.7C380.8,329.1,382.6,330.4,382.6,335.3z"/>
		<path class="st2" d="M396.8,349.2c-7.3,0-8.8-4.5-8.8-10.1c0-5.7,1.8-10,7.8-10c6,0,7.1,3.5,7.1,8.3v0.8c0,1.4-0.3,1.6-0.9,1.6
			h-11.1c-0.2,0-0.2,0.1-0.2,0.3c0,5.2,1.9,7.1,6.7,7.1c1.6,0,3.4-0.4,4.5-0.9c0.3-0.1,0.5-0.1,0.5,0.2l0.1,1.3
			c0,0.2-0.1,0.3-0.3,0.4C400.7,348.8,398.9,349.2,396.8,349.2z M390.8,337.8h9.2c0.3,0,0.4-0.1,0.4-1.3c0-3.6-1-5.5-4.7-5.5
			c-4.2,0-5.2,3.1-5.2,6.5C390.6,337.7,390.7,337.8,390.8,337.8z"/>
		<path class="st2" d="M416.3,349.2c-7.3,0-8.8-4.5-8.8-10.1c0-5.7,1.8-10,7.8-10c6,0,7.1,3.5,7.1,8.3v0.8c0,1.4-0.3,1.6-0.9,1.6
			h-11.1c-0.2,0-0.2,0.1-0.2,0.3c0,5.2,1.9,7.1,6.7,7.1c1.6,0,3.4-0.4,4.5-0.9c0.3-0.1,0.5-0.1,0.5,0.2l0.1,1.3
			c0,0.2-0.1,0.3-0.3,0.4C420.3,348.8,418.4,349.2,416.3,349.2z M410.4,337.8h9.2c0.3,0,0.4-0.1,0.4-1.3c0-3.6-1-5.5-4.7-5.5
			c-4.2,0-5.2,3.1-5.2,6.5C410.2,337.7,410.2,337.8,410.4,337.8z"/>
		<path class="st2" d="M428.2,329.7c1.8-0.4,3.6-0.7,5.3-0.7c1.2,0,2.1,0,2.9,0.2c0.1,0,0.2,0.1,0.2,0.3l-0.2,1.7
			c0,0.1-0.1,0.2-0.3,0.2c-0.8-0.1-1.7-0.3-2.7-0.3c-0.8,0-2,0.1-2.8,0.4c-0.3,0.1-0.3,0.2-0.3,0.4v16.5c0,0.3-0.1,0.4-0.4,0.4h-1.8
			c-0.2,0-0.4-0.1-0.4-0.4v-18.3C427.8,329.9,428,329.8,428.2,329.7z"/>
		<path class="st2" d="M440.6,325.3c-0.2,0-0.4-0.1-0.4-0.4v-2.4c0-0.2,0.1-0.4,0.4-0.4h2.2c0.2,0,0.4,0.1,0.4,0.4v2.4
			c0,0.2-0.1,0.4-0.4,0.4H440.6z M440.8,348.8c-0.2,0-0.4-0.1-0.4-0.4v-18.6c0-0.2,0.1-0.4,0.4-0.4h1.8c0.2,0,0.4,0.1,0.4,0.4v18.6
			c0,0.2-0.1,0.4-0.4,0.4H440.8z"/>
		<path class="st2" d="M463.8,335.3v13.1c0,0.2-0.1,0.4-0.4,0.4h-1.8c-0.2,0-0.4-0.1-0.4-0.4v-12.9c0-3.4-0.9-4.5-4.9-4.5
			c-1.5,0-3,0.1-3.8,0.3c-0.3,0.1-0.4,0.1-0.4,0.4v16.6c0,0.2-0.1,0.4-0.4,0.4H450c-0.2,0-0.4-0.1-0.4-0.4v-18.3
			c0-0.2,0.1-0.3,0.4-0.4c2-0.4,4.6-0.7,6.4-0.7C462.1,329.1,463.8,330.4,463.8,335.3z"/>
		<path class="st2" d="M483.9,348.5c0,5.5-2.6,6.8-7.5,6.8c-2,0-4.7-0.3-6.2-0.8c-0.2-0.1-0.2-0.3-0.2-0.4l0.2-1.3
			c0.1-0.2,0.3-0.3,0.5-0.2c1.2,0.4,3.7,0.7,5.4,0.7c4.4,0,5.2-1.2,5.2-5.6c0-0.2-0.1-0.3-0.3-0.3c-0.9,0.1-2.4,0.3-3.4,0.3
			c-6.5,0-8.4-2.4-8.4-9.2c0-6.6,2.2-9.5,8.4-9.5c1.7,0,3.9,0.2,5.9,0.6c0.3,0.1,0.4,0.2,0.4,0.4V348.5z M481.1,345.5
			c0.3-0.1,0.3-0.2,0.3-0.5v-13.1c0-0.2,0-0.4-0.3-0.4c-0.7-0.2-2.1-0.3-3.4-0.3c-4.4,0-5.6,1.6-5.6,7.3s0.9,7.4,5.7,7.4
			C479.3,345.8,480.4,345.7,481.1,345.5z"/>
		<path class="st2" d="M496.8,339.1c0-7,2.2-10.1,8.6-10.1c1.2,0,2.5,0.2,3.2,0.3c0.2,0,0.3-0.1,0.3-0.3v-6.6c0-0.2,0.1-0.4,0.4-0.4
			h1.8c0.2,0,0.4,0.1,0.4,0.4v25.6c0,0.2-0.1,0.3-0.4,0.4c-1.6,0.4-3.5,0.7-5.6,0.7C498.4,349.2,496.8,346,496.8,339.1z M508.8,332
			c0-0.3,0-0.4-0.3-0.5c-0.7-0.2-2-0.4-3.2-0.4c-4.7,0-5.9,1.8-5.9,8c0,6,1.1,8,5.9,8c1.2,0,2.4-0.1,3.1-0.3
			c0.3-0.1,0.3-0.3,0.3-0.5V332z"/>
		<path class="st2" d="M518.2,325.3c-0.2,0-0.4-0.1-0.4-0.4v-2.4c0-0.2,0.1-0.4,0.4-0.4h2.2c0.2,0,0.4,0.1,0.4,0.4v2.4
			c0,0.2-0.1,0.4-0.4,0.4H518.2z M518.4,348.8c-0.2,0-0.4-0.1-0.4-0.4v-18.6c0-0.2,0.1-0.4,0.4-0.4h1.8c0.2,0,0.4,0.1,0.4,0.4v18.6
			c0,0.2-0.1,0.4-0.4,0.4H518.4z"/>
		<path class="st2" d="M541.3,348.5c0,5.5-2.6,6.8-7.5,6.8c-2,0-4.7-0.3-6.2-0.8c-0.2-0.1-0.2-0.3-0.2-0.4l0.2-1.3
			c0.1-0.2,0.3-0.3,0.5-0.2c1.2,0.4,3.7,0.7,5.4,0.7c4.4,0,5.2-1.2,5.2-5.6c0-0.2-0.1-0.3-0.3-0.3c-0.9,0.1-2.4,0.3-3.4,0.3
			c-6.5,0-8.4-2.4-8.4-9.2c0-6.6,2.2-9.5,8.4-9.5c1.7,0,3.9,0.2,5.9,0.6c0.3,0.1,0.4,0.2,0.4,0.4V348.5z M538.4,345.5
			c0.3-0.1,0.3-0.2,0.3-0.5v-13.1c0-0.2,0-0.4-0.3-0.4c-0.7-0.2-2.1-0.3-3.4-0.3c-4.4,0-5.6,1.6-5.6,7.3s0.9,7.4,5.7,7.4
			C536.6,345.8,537.8,345.7,538.4,345.5z"/>
		<path class="st2" d="M548.1,325.3c-0.2,0-0.4-0.1-0.4-0.4v-2.4c0-0.2,0.1-0.4,0.4-0.4h2.2c0.2,0,0.4,0.1,0.4,0.4v2.4
			c0,0.2-0.1,0.4-0.4,0.4H548.1z M548.3,348.8c-0.2,0-0.4-0.1-0.4-0.4v-18.6c0-0.2,0.1-0.4,0.4-0.4h1.8c0.2,0,0.4,0.1,0.4,0.4v18.6
			c0,0.2-0.1,0.4-0.4,0.4H548.3z"/>
		<path class="st2" d="M561.6,349.1c-2.8,0-3.5-1.5-3.5-3.6v-13.8c0-0.1-0.1-0.2-0.2-0.2h-3c-0.2,0-0.4-0.1-0.4-0.4v-1.3
			c0-0.2,0.1-0.4,0.4-0.4h3c0.1,0,0.2-0.1,0.2-0.2v-4.5c0-0.2,0.1-0.4,0.4-0.4h1.8c0.2,0,0.4,0.1,0.4,0.4v4.5c0,0.1,0.1,0.2,0.2,0.2
			h3.4c0.2,0,0.4,0.1,0.4,0.4v1.3c0,0.2-0.1,0.4-0.4,0.4h-3.4c-0.1,0-0.2,0.1-0.2,0.2V345c0,1.7,0.3,2.1,1.8,2.1h1.4
			c0.2,0,0.4,0.1,0.4,0.3l0,1c0,0.2-0.1,0.4-0.3,0.4C563.4,349,562.5,349.1,561.6,349.1z"/>
		<path class="st2" d="M569.9,331.6c-0.2,0-0.4,0-0.4-0.2l-0.2-1.2c0-0.2,0-0.4,0.2-0.5c1.4-0.4,3.3-0.7,5.4-0.7
			c4.5,0,6.4,1.7,6.4,5.9V348c0,0.3-0.1,0.5-0.4,0.6c-1.1,0.3-3.2,0.5-5.3,0.5c-6,0-7.8-1.3-7.8-5.3c0-3.4,0.8-5.3,6-5.8l4.9-0.5
			c0.1,0,0.2-0.1,0.2-0.3v-2c0-3.2-1.1-4.2-4.4-4.2C572.9,331.2,571,331.4,569.9,331.6z M578.8,339.9c0-0.1-0.1-0.2-0.2-0.2h-4
			c-3.4,0-4.3,0.9-4.3,3.9c0,3,0.9,3.7,5,3.7c1.1,0,2.6-0.1,3.1-0.2c0.3-0.1,0.4-0.1,0.4-0.3V339.9z"/>
		<path class="st2" d="M591.2,349.1c-2.8,0-3.6-1.1-3.6-4.7v-21.9c0-0.2,0.1-0.4,0.4-0.4h1.8c0.2,0,0.4,0.1,0.4,0.4v21.9
			c0,2.1,0.3,2.7,1.8,2.7h1.5c0.2,0,0.3,0.1,0.3,0.3l-0.1,1.1c0,0.2-0.1,0.3-0.3,0.3C592.8,349,592.1,349.1,591.2,349.1z"/>
		<path class="st2" d="M619.5,338.5c0,7-2.1,10.3-8.5,10.3c-1,0-2.5-0.1-3.3-0.2c-0.2,0-0.3,0-0.3,0.3v6.1c0,0.2-0.1,0.4-0.4,0.4
			h-1.8c-0.2,0-0.4-0.1-0.4-0.4v-24.8c0-0.2,0.1-0.3,0.4-0.4c1.6-0.3,3.6-0.7,5.6-0.7C617.9,329.1,619.5,331.7,619.5,338.5z
			 M607.5,346c0,0.3,0,0.4,0.3,0.5c0.9,0.1,2,0.3,3.1,0.3c4.7,0,5.9-2.1,5.9-8.3c0-5.9-1.3-7.4-5.9-7.4c-1.4,0-2.4,0.1-3.1,0.3
			c-0.3,0.1-0.3,0.3-0.3,0.5V346z"/>
		<path class="st2" d="M626.5,331.6c-0.2,0-0.4,0-0.4-0.2l-0.2-1.2c0-0.2,0-0.4,0.2-0.5c1.4-0.4,3.3-0.7,5.4-0.7
			c4.5,0,6.4,1.7,6.4,5.9V348c0,0.3-0.1,0.5-0.4,0.6c-1.1,0.3-3.2,0.5-5.3,0.5c-6,0-7.8-1.3-7.8-5.3c0-3.4,0.8-5.3,6-5.8l4.9-0.5
			c0.1,0,0.2-0.1,0.2-0.3v-2c0-3.2-1.1-4.2-4.4-4.2C629.5,331.2,627.6,331.4,626.5,331.6z M635.4,339.9c0-0.1-0.1-0.2-0.2-0.2h-4
			c-3.4,0-4.3,0.9-4.3,3.9c0,3,0.9,3.7,5,3.7c1.1,0,2.6-0.1,3.1-0.2c0.3-0.1,0.4-0.1,0.4-0.3V339.9z"/>
		<path class="st2" d="M648.8,349.1c-2.8,0-3.5-1.5-3.5-3.6v-13.8c0-0.1-0.1-0.2-0.2-0.2h-3c-0.2,0-0.4-0.1-0.4-0.4v-1.3
			c0-0.2,0.1-0.4,0.4-0.4h3c0.1,0,0.2-0.1,0.2-0.2v-4.5c0-0.2,0.1-0.4,0.4-0.4h1.8c0.2,0,0.4,0.1,0.4,0.4v4.5c0,0.1,0.1,0.2,0.2,0.2
			h3.4c0.2,0,0.4,0.1,0.4,0.4v1.3c0,0.2-0.1,0.4-0.4,0.4h-3.4c-0.1,0-0.2,0.1-0.2,0.2V345c0,1.7,0.3,2.1,1.8,2.1h1.4
			c0.2,0,0.4,0.1,0.4,0.3l0,1c0,0.2-0.1,0.4-0.3,0.4C650.5,349,649.6,349.1,648.8,349.1z"/>
		<path class="st2" d="M656.1,329.7c1.8-0.4,3.6-0.7,5.3-0.7c1.2,0,2.1,0,2.9,0.2c0.1,0,0.2,0.1,0.2,0.3l-0.2,1.7
			c0,0.1-0.1,0.2-0.3,0.2c-0.8-0.1-1.7-0.3-2.7-0.3c-0.8,0-2,0.1-2.8,0.4c-0.3,0.1-0.3,0.2-0.3,0.4v16.5c0,0.3-0.1,0.4-0.4,0.4h-1.8
			c-0.2,0-0.4-0.1-0.4-0.4v-18.3C655.7,329.9,655.9,329.8,656.1,329.7z"/>
		<path class="st2" d="M680.5,347.3c-1.2,1.4-3,1.9-5.8,1.9c-2.9,0-4.5-0.5-5.7-1.9c-1.3-1.5-2.2-4.7-2.2-8.3c0-3.7,0.8-6.5,2.2-8
			c1.2-1.4,2.9-1.9,5.8-1.9c2.9,0,4.6,0.5,5.8,1.9c1.3,1.5,2.1,4.3,2.1,8C682.6,342.6,681.8,345.7,680.5,347.3z M671,346.1
			c0.7,0.7,1.4,1,3.6,1c2.4,0,3.1-0.3,3.8-1c1-1.1,1.6-3.9,1.6-7.1c0-3.3-0.5-5.8-1.6-6.9c-0.7-0.7-1.4-1-3.7-1
			c-2.4,0-3.1,0.3-3.8,1c-1.1,1.1-1.6,3.6-1.6,6.9C669.4,342.2,669.9,345,671,346.1z"/>
		<path class="st2" d="M702.4,335.3v13.1c0,0.2-0.1,0.4-0.4,0.4h-1.8c-0.2,0-0.4-0.1-0.4-0.4v-12.9c0-3.4-0.9-4.5-4.9-4.5
			c-1.5,0-3,0.1-3.8,0.3c-0.3,0.1-0.4,0.1-0.4,0.4v16.6c0,0.2-0.1,0.4-0.4,0.4h-1.8c-0.2,0-0.4-0.1-0.4-0.4v-18.3
			c0-0.2,0.1-0.3,0.4-0.4c2-0.4,4.6-0.7,6.4-0.7C700.6,329.1,702.4,330.4,702.4,335.3z"/>
		<path class="st2" d="M709.8,331.6c-0.2,0-0.4,0-0.4-0.2l-0.2-1.2c0-0.2,0-0.4,0.2-0.5c1.4-0.4,3.3-0.7,5.4-0.7
			c4.5,0,6.4,1.7,6.4,5.9V348c0,0.3-0.1,0.5-0.4,0.6c-1.1,0.3-3.2,0.5-5.3,0.5c-6,0-7.8-1.3-7.8-5.3c0-3.4,0.8-5.3,6-5.8l4.9-0.5
			c0.1,0,0.2-0.1,0.2-0.3v-2c0-3.2-1.1-4.2-4.4-4.2C712.8,331.2,711,331.4,709.8,331.6z M718.7,339.9c0-0.1-0.1-0.2-0.2-0.2h-4
			c-3.4,0-4.3,0.9-4.3,3.9c0,3,0.9,3.7,5,3.7c1.1,0,2.6-0.1,3.1-0.2c0.3-0.1,0.4-0.1,0.4-0.3V339.9z"/>
		<path class="st2" d="M741.6,348.5c0,5.5-2.6,6.8-7.5,6.8c-2,0-4.7-0.3-6.2-0.8c-0.2-0.1-0.2-0.3-0.2-0.4l0.2-1.3
			c0.1-0.2,0.3-0.3,0.5-0.2c1.2,0.4,3.7,0.7,5.4,0.7c4.4,0,5.2-1.2,5.2-5.6c0-0.2-0.1-0.3-0.3-0.3c-0.9,0.1-2.4,0.3-3.4,0.3
			c-6.5,0-8.4-2.4-8.4-9.2c0-6.6,2.2-9.5,8.4-9.5c1.7,0,3.9,0.2,5.9,0.6c0.3,0.1,0.4,0.2,0.4,0.4V348.5z M738.7,345.5
			c0.3-0.1,0.3-0.2,0.3-0.5v-13.1c0-0.2,0-0.4-0.3-0.4c-0.7-0.2-2.1-0.3-3.4-0.3c-4.4,0-5.6,1.6-5.6,7.3s0.9,7.4,5.7,7.4
			C736.9,345.8,738.1,345.7,738.7,345.5z"/>
		<path class="st2" d="M756,349.2c-7.3,0-8.8-4.5-8.8-10.1c0-5.7,1.8-10,7.8-10c6,0,7.1,3.5,7.1,8.3v0.8c0,1.4-0.3,1.6-0.9,1.6H750
			c-0.2,0-0.2,0.1-0.2,0.3c0,5.2,1.9,7.1,6.7,7.1c1.6,0,3.4-0.4,4.5-0.9c0.3-0.1,0.5-0.1,0.5,0.2l0.1,1.3c0,0.2-0.1,0.3-0.3,0.4
			C759.9,348.8,758.1,349.2,756,349.2z M750,337.8h9.2c0.3,0,0.4-0.1,0.4-1.3c0-3.6-1-5.5-4.7-5.5c-4.2,0-5.2,3.1-5.2,6.5
			C749.8,337.7,749.8,337.8,750,337.8z"/>
	</g>
</g>
</svg>
