<?xml version="1.0" encoding="utf-8"?>
<!-- Generator: Adobe Illustrator 24.3.0, SVG Export Plug-In . SVG Version: 6.00 Build 0)  -->
<svg version="1.1" id="Layer_1" xmlns="http://www.w3.org/2000/svg" xmlns:xlink="http://www.w3.org/1999/xlink" x="0px" y="0px"
	 viewBox="0 0 1080 1080" style="enable-background:new 0 0 1080 1080;" xml:space="preserve">
<style type="text/css">
	.st0{fill:#2A7DE1;}
	.st1{fill:#FFFFFF;}
	.st2{fill:#939598;}
</style>
<g>
	<g>
		<path d="M327.2,394.8l27.2,17.6v255.2l-27.2,17.6V394.8 M306.5,356.8v366.5l68.8-44.3V401.1L306.5,356.8L306.5,356.8z"/>
	</g>
	<g>
		<path d="M752.8,394.8v290.3l-27.2-17.6V412.4L752.8,394.8 M773.5,356.8l-68.8,44.3v277.9l68.8,44.3V356.8L773.5,356.8z"/>
	</g>
	<g>
		<g>
			<polygon class="st0" points="542.6,544.5 327.2,407.1 327.2,382.5 542.6,519.9 752.8,385.8 752.8,410.4 			"/>
		</g>
	</g>
	<g>
		<g>
			<polygon class="st0" points="542.6,602.6 327.2,465.2 327.2,440.6 542.6,577.9 752.8,443.9 752.8,468.5 			"/>
		</g>
	</g>
</g>
</svg>
