<?xml version="1.0" encoding="utf-8"?>
<!-- Generator: Adobe Illustrator 24.3.0, SVG Export Plug-In . SVG Version: 6.00 Build 0)  -->
<svg version="1.1" id="Layer_1" xmlns="http://www.w3.org/2000/svg" xmlns:xlink="http://www.w3.org/1999/xlink" x="0px" y="0px"
	 viewBox="0 0 1080 590" style="enable-background:new 0 0 1080 590;" xml:space="preserve">
<style type="text/css">
	.st0{fill:#2A7DE1;}
	.st1{fill:#FFFFFF;}
	.st2{fill:#939598;}
</style>
<g>
	<g>
		<polygon class="st0" points="812.4,388.4 605.9,388.4 633.7,334.8 812.4,334.8 		"/>
	</g>
	<g>
		<path d="M320.1,340.8v41.6h-5v-34.6l-21.1,25.6h-0.4l-21.1-25.6v34.6h-4.9v-41.6h5.5l20.8,25.4l20.8-25.4H320.1z"/>
		<path d="M351.7,382.4v-41.6h5v41.6H351.7z"/>
		<path d="M432.4,340.8v41.6h-4.4l-34.9-35.2v35.2h-4.9v-41.6h5.4l33.9,34.3v-34.3H432.4z"/>
		<path d="M502.7,345.3h-19.7v37.1h-5v-37.1h-19.6v-4.5h44.3V345.3z"/>
		<path d="M528.9,340.8l17.5,22.5l17.3-22.5h5.9l-20.9,27v14.6h-5v-14.6l-20.9-27H528.9z"/>
		<path d="M586.1,379.7c0-1.9,1.5-3.3,3.6-3.3s3.6,1.4,3.6,3.3c0,1.9-1.5,3.3-3.6,3.3S586.1,381.6,586.1,379.7z"/>
		<path class="st1" d="M654.9,373.6h-25.1l-4.5,8.8h-10.2l22-41.6h10.4l22,41.6h-10.3L654.9,373.6z M651,365.9l-8.6-16.9l-8.6,16.9
			H651z"/>
		<path class="st1" d="M729.5,382.4l-11.9-14.1h-15v14.1h-9.4v-41.6h28.7c10.2,0,17.8,4.7,17.8,13.7c0,7.1-4.7,11.5-11.6,13.1
			l12.8,14.8H729.5z M721.3,360.4c5,0,8.7-1.2,8.7-5.8s-3.7-5.8-8.7-5.8h-18.8v11.6H721.3z"/>
		<path class="st1" d="M806.4,349h-18.2v33.4h-9.5V349h-18.1v-8.2h45.7V349z"/>
	</g>
	<g>
		<g>
			<path d="M488.8,210.8l6.6,4.2v61.5l-6.6,4.2V210.8 M483.8,201.6v88.3l16.6-10.7v-66.9L483.8,201.6L483.8,201.6z"/>
		</g>
		<g>
			<path d="M591.2,210.8v69.9l-6.6-4.2V215L591.2,210.8 M596.2,201.6l-16.6,10.7v66.9l16.6,10.7V201.6L596.2,201.6z"/>
		</g>
		<g>
			<g>
				<polygon class="st0" points="540.6,246.8 488.8,213.7 488.8,207.8 540.6,240.9 591.2,208.6 591.2,214.5 				"/>
			</g>
		</g>
		<g>
			<g>
				<polygon class="st0" points="540.6,260.8 488.8,227.7 488.8,221.8 540.6,254.9 591.2,222.6 591.2,228.5 				"/>
			</g>
		</g>
	</g>
</g>
</svg>
