<?xml version="1.0" encoding="utf-8"?>
<!-- Generator: Adobe Illustrator 24.3.0, SVG Export Plug-In . SVG Version: 6.00 Build 0)  -->
<svg version="1.1" id="Layer_1" xmlns="http://www.w3.org/2000/svg" xmlns:xlink="http://www.w3.org/1999/xlink" x="0px" y="0px"
	 viewBox="0 0 1080 590" style="enable-background:new 0 0 1080 590;" xml:space="preserve">
<style type="text/css">
	.st0{fill:#2A7DE1;}
	.st1{fill:#FFFFFF;}
	.st2{fill:#939598;}
</style>
<rect x="-3" width="1086" height="590"/>
<g>
	<g>
		<polygon class="st0" points="812.4,354.9 605.9,354.9 633.7,301.3 812.4,301.3 		"/>
	</g>
	<g>
		<path class="st1" d="M320.1,307.3v41.6h-5v-34.6l-21.1,25.6h-0.4l-21.1-25.6v34.6h-4.9v-41.6h5.5l20.8,25.4l20.8-25.4H320.1z"/>
		<path class="st1" d="M351.7,348.9v-41.6h5v41.6H351.7z"/>
		<path class="st1" d="M432.4,307.3v41.6h-4.4l-34.9-35.2v35.2h-4.9v-41.6h5.4l33.9,34.3v-34.3H432.4z"/>
		<path class="st1" d="M502.7,311.8h-19.7v37.1h-5v-37.1h-19.6v-4.5h44.3V311.8z"/>
		<path class="st1" d="M528.9,307.3l17.5,22.5l17.3-22.5h5.9l-20.9,27v14.6h-5v-14.6l-20.9-27H528.9z"/>
		<path class="st1" d="M586.1,346.2c0-1.9,1.5-3.3,3.6-3.3s3.6,1.4,3.6,3.3c0,1.9-1.5,3.3-3.6,3.3S586.1,348.1,586.1,346.2z"/>
		<path d="M654.9,340.1h-25.1l-4.5,8.8h-10.2l22-41.6h10.4l22,41.6h-10.3L654.9,340.1z M651,332.4l-8.6-16.9l-8.6,16.9H651z"/>
		<path d="M729.5,348.9l-11.9-14.1h-15v14.1h-9.4v-41.6h28.7c10.2,0,17.8,4.7,17.8,13.7c0,7.1-4.7,11.5-11.6,13.1l12.8,14.8H729.5z
			 M721.3,326.9c5,0,8.7-1.2,8.7-5.8c0-4.6-3.7-5.8-8.7-5.8h-18.8v11.6H721.3z"/>
		<path d="M806.4,315.5h-18.2v33.4h-9.5v-33.4h-18.1v-8.2h45.7V315.5z"/>
	</g>
	<g>
		<g>
			<path class="st1" d="M488.8,177.3l6.6,4.2V243l-6.6,4.2V177.3 M483.8,168.1v88.3l16.6-10.7v-66.9L483.8,168.1L483.8,168.1z"/>
		</g>
		<g>
			<path class="st1" d="M591.2,177.3v69.9l-6.6-4.2v-61.5L591.2,177.3 M596.2,168.1l-16.6,10.7v66.9l16.6,10.7V168.1L596.2,168.1z"
				/>
		</g>
		<g>
			<g>
				<polygon class="st0" points="540.6,213.3 488.8,180.2 488.8,174.3 540.6,207.4 591.2,175.1 591.2,181 				"/>
			</g>
		</g>
		<g>
			<g>
				<polygon class="st0" points="540.6,227.3 488.8,194.2 488.8,188.3 540.6,221.4 591.2,189.1 591.2,195 				"/>
			</g>
		</g>
	</g>
	<g>
		<path class="st2" d="M332.6,405.1c0,7-2.1,10.3-8.5,10.3c-1.1,0-2.5-0.1-3.3-0.2c-0.2,0-0.3,0-0.3,0.3v6.1c0,0.2-0.1,0.4-0.4,0.4
			h-1.8c-0.2,0-0.4-0.1-0.4-0.4v-24.8c0-0.2,0.1-0.3,0.4-0.4c1.6-0.3,3.6-0.7,5.6-0.7C330.9,395.6,332.6,398.2,332.6,405.1z
			 M320.5,412.6c0,0.3,0,0.4,0.3,0.5c0.9,0.1,2,0.3,3.1,0.3c4.7,0,5.9-2.1,5.9-8.3c0-5.9-1.3-7.4-5.9-7.4c-1.4,0-2.4,0.1-3.1,0.3
			c-0.3,0.1-0.3,0.3-0.3,0.5V412.6z"/>
		<path class="st2" d="M338.7,391.9c-0.2,0-0.4-0.1-0.4-0.4v-2.4c0-0.2,0.1-0.4,0.4-0.4h2.2c0.2,0,0.4,0.1,0.4,0.4v2.4
			c0,0.2-0.1,0.4-0.4,0.4H338.7z M338.9,415.4c-0.2,0-0.4-0.1-0.4-0.4v-18.6c0-0.2,0.1-0.4,0.4-0.4h1.8c0.2,0,0.4,0.1,0.4,0.4V415
			c0,0.2-0.1,0.4-0.4,0.4H338.9z"/>
		<path class="st2" d="M360.7,413.8c-1.2,1.4-3,1.9-5.8,1.9c-2.9,0-4.5-0.5-5.7-1.9c-1.3-1.5-2.2-4.7-2.2-8.3c0-3.7,0.8-6.5,2.2-8
			c1.2-1.4,2.9-1.9,5.8-1.9c2.9,0,4.6,0.5,5.8,1.9c1.3,1.5,2.1,4.3,2.1,8C362.8,409.1,362,412.3,360.7,413.8z M351.2,412.7
			c0.7,0.7,1.4,1,3.6,1c2.4,0,3.1-0.3,3.8-1c1.1-1.1,1.6-3.9,1.6-7.1c0-3.3-0.5-5.8-1.6-6.9c-0.7-0.7-1.4-1-3.7-1
			c-2.4,0-3.1,0.3-3.8,1c-1.1,1.1-1.6,3.6-1.6,6.9C349.6,408.8,350.1,411.6,351.2,412.7z"/>
		<path class="st2" d="M382.6,401.9V415c0,0.2-0.1,0.4-0.4,0.4h-1.8c-0.2,0-0.4-0.1-0.4-0.4v-12.9c0-3.4-0.9-4.5-4.9-4.5
			c-1.5,0-3,0.1-3.8,0.3c-0.3,0.1-0.4,0.1-0.4,0.4V415c0,0.2-0.1,0.4-0.4,0.4h-1.8c-0.2,0-0.4-0.1-0.4-0.4v-18.3
			c0-0.2,0.1-0.3,0.4-0.4c2-0.4,4.6-0.7,6.4-0.7C380.8,395.6,382.6,397,382.6,401.9z"/>
		<path class="st2" d="M396.8,415.7c-7.3,0-8.8-4.5-8.8-10.1c0-5.7,1.8-10,7.8-10c6,0,7.1,3.5,7.1,8.3v0.8c0,1.4-0.3,1.6-0.9,1.6
			h-11.1c-0.2,0-0.2,0.1-0.2,0.3c0,5.2,1.9,7.1,6.7,7.1c1.6,0,3.4-0.4,4.5-0.9c0.3-0.1,0.5-0.1,0.5,0.2l0.1,1.3
			c0,0.2-0.1,0.3-0.3,0.4C400.7,415.4,398.9,415.7,396.8,415.7z M390.8,404.4h9.2c0.3,0,0.4-0.1,0.4-1.3c0-3.6-1-5.5-4.7-5.5
			c-4.2,0-5.2,3.1-5.2,6.5C390.6,404.3,390.7,404.4,390.8,404.4z"/>
		<path class="st2" d="M416.3,415.7c-7.3,0-8.8-4.5-8.8-10.1c0-5.7,1.8-10,7.8-10c6,0,7.1,3.5,7.1,8.3v0.8c0,1.4-0.3,1.6-0.9,1.6
			h-11.1c-0.2,0-0.2,0.1-0.2,0.3c0,5.2,1.9,7.1,6.7,7.1c1.6,0,3.4-0.4,4.5-0.9c0.3-0.1,0.5-0.1,0.5,0.2l0.1,1.3
			c0,0.2-0.1,0.3-0.3,0.4C420.3,415.4,418.4,415.7,416.3,415.7z M410.4,404.4h9.2c0.3,0,0.4-0.1,0.4-1.3c0-3.6-1-5.5-4.7-5.5
			c-4.2,0-5.2,3.1-5.2,6.5C410.2,404.3,410.2,404.4,410.4,404.4z"/>
		<path class="st2" d="M428.2,396.3c1.8-0.4,3.6-0.7,5.3-0.7c1.2,0,2.1,0,2.9,0.2c0.1,0,0.2,0.1,0.2,0.3l-0.2,1.7
			c0,0.1-0.1,0.2-0.3,0.2c-0.8-0.1-1.7-0.3-2.7-0.3c-0.8,0-2,0.1-2.8,0.4c-0.3,0.1-0.3,0.2-0.3,0.4V415c0,0.3-0.1,0.4-0.4,0.4h-1.8
			c-0.2,0-0.4-0.1-0.4-0.4v-18.3C427.8,396.5,428,396.4,428.2,396.3z"/>
		<path class="st2" d="M440.6,391.9c-0.2,0-0.4-0.1-0.4-0.4v-2.4c0-0.2,0.1-0.4,0.4-0.4h2.2c0.2,0,0.4,0.1,0.4,0.4v2.4
			c0,0.2-0.1,0.4-0.4,0.4H440.6z M440.8,415.4c-0.2,0-0.4-0.1-0.4-0.4v-18.6c0-0.2,0.1-0.4,0.4-0.4h1.8c0.2,0,0.4,0.1,0.4,0.4V415
			c0,0.2-0.1,0.4-0.4,0.4H440.8z"/>
		<path class="st2" d="M463.8,401.9V415c0,0.2-0.1,0.4-0.4,0.4h-1.8c-0.2,0-0.4-0.1-0.4-0.4v-12.9c0-3.4-0.9-4.5-4.9-4.5
			c-1.5,0-3,0.1-3.8,0.3c-0.3,0.1-0.4,0.1-0.4,0.4V415c0,0.2-0.1,0.4-0.4,0.4H450c-0.2,0-0.4-0.1-0.4-0.4v-18.3
			c0-0.2,0.1-0.3,0.4-0.4c2-0.4,4.6-0.7,6.4-0.7C462.1,395.6,463.8,397,463.8,401.9z"/>
		<path class="st2" d="M483.9,415.1c0,5.5-2.6,6.8-7.5,6.8c-2,0-4.7-0.3-6.2-0.8c-0.2-0.1-0.2-0.3-0.2-0.4l0.2-1.3
			c0.1-0.2,0.3-0.3,0.5-0.2c1.2,0.4,3.7,0.7,5.4,0.7c4.4,0,5.2-1.2,5.2-5.6c0-0.2-0.1-0.3-0.3-0.3c-0.9,0.1-2.4,0.3-3.4,0.3
			c-6.5,0-8.4-2.4-8.4-9.2c0-6.6,2.2-9.5,8.4-9.5c1.7,0,3.9,0.2,5.9,0.6c0.3,0.1,0.4,0.2,0.4,0.4V415.1z M481.1,412
			c0.3-0.1,0.3-0.2,0.3-0.5v-13.1c0-0.2,0-0.4-0.3-0.4c-0.7-0.2-2.1-0.3-3.4-0.3c-4.4,0-5.6,1.6-5.6,7.3s0.9,7.4,5.7,7.4
			C479.3,412.4,480.4,412.3,481.1,412z"/>
		<path class="st2" d="M496.8,405.7c0-7,2.2-10.1,8.6-10.1c1.2,0,2.5,0.2,3.2,0.3c0.2,0,0.3-0.1,0.3-0.3v-6.6c0-0.2,0.1-0.4,0.4-0.4
			h1.8c0.2,0,0.4,0.1,0.4,0.4v25.6c0,0.2-0.1,0.3-0.4,0.4c-1.6,0.4-3.5,0.7-5.6,0.7C498.4,415.7,496.8,412.5,496.8,405.7z
			 M508.8,398.6c0-0.3,0-0.4-0.3-0.5c-0.7-0.2-2-0.4-3.2-0.4c-4.7,0-5.9,1.8-5.9,8c0,6,1.1,8,5.9,8c1.2,0,2.4-0.1,3.1-0.3
			c0.3-0.1,0.3-0.3,0.3-0.5V398.6z"/>
		<path class="st2" d="M518.2,391.9c-0.2,0-0.4-0.1-0.4-0.4v-2.4c0-0.2,0.1-0.4,0.4-0.4h2.2c0.2,0,0.4,0.1,0.4,0.4v2.4
			c0,0.2-0.1,0.4-0.4,0.4H518.2z M518.4,415.4c-0.2,0-0.4-0.1-0.4-0.4v-18.6c0-0.2,0.1-0.4,0.4-0.4h1.8c0.2,0,0.4,0.1,0.4,0.4V415
			c0,0.2-0.1,0.4-0.4,0.4H518.4z"/>
		<path class="st2" d="M541.3,415.1c0,5.5-2.6,6.8-7.5,6.8c-2,0-4.7-0.3-6.2-0.8c-0.2-0.1-0.2-0.3-0.2-0.4l0.2-1.3
			c0.1-0.2,0.3-0.3,0.5-0.2c1.2,0.4,3.7,0.7,5.4,0.7c4.4,0,5.2-1.2,5.2-5.6c0-0.2-0.1-0.3-0.3-0.3c-0.9,0.1-2.4,0.3-3.4,0.3
			c-6.5,0-8.4-2.4-8.4-9.2c0-6.6,2.2-9.5,8.4-9.5c1.7,0,3.9,0.2,5.9,0.6c0.3,0.1,0.4,0.2,0.4,0.4V415.1z M538.4,412
			c0.3-0.1,0.3-0.2,0.3-0.5v-13.1c0-0.2,0-0.4-0.3-0.4c-0.7-0.2-2.1-0.3-3.4-0.3c-4.4,0-5.6,1.6-5.6,7.3s0.9,7.4,5.7,7.4
			C536.6,412.4,537.8,412.3,538.4,412z"/>
		<path class="st2" d="M548.1,391.9c-0.2,0-0.4-0.1-0.4-0.4v-2.4c0-0.2,0.1-0.4,0.4-0.4h2.2c0.2,0,0.4,0.1,0.4,0.4v2.4
			c0,0.2-0.1,0.4-0.4,0.4H548.1z M548.3,415.4c-0.2,0-0.4-0.1-0.4-0.4v-18.6c0-0.2,0.1-0.4,0.4-0.4h1.8c0.2,0,0.4,0.1,0.4,0.4V415
			c0,0.2-0.1,0.4-0.4,0.4H548.3z"/>
		<path class="st2" d="M561.6,415.7c-2.8,0-3.5-1.5-3.5-3.6v-13.8c0-0.1-0.1-0.2-0.2-0.2h-3c-0.2,0-0.4-0.1-0.4-0.4v-1.3
			c0-0.2,0.1-0.4,0.4-0.4h3c0.1,0,0.2-0.1,0.2-0.2v-4.5c0-0.2,0.1-0.4,0.4-0.4h1.8c0.2,0,0.4,0.1,0.4,0.4v4.5c0,0.1,0.1,0.2,0.2,0.2
			h3.4c0.2,0,0.4,0.1,0.4,0.4v1.3c0,0.2-0.1,0.4-0.4,0.4h-3.4c-0.1,0-0.2,0.1-0.2,0.2v13.4c0,1.7,0.3,2.1,1.8,2.1h1.4
			c0.2,0,0.4,0.1,0.4,0.3l0,1c0,0.2-0.1,0.4-0.3,0.4C563.4,415.6,562.5,415.7,561.6,415.7z"/>
		<path class="st2" d="M569.9,398.2c-0.2,0-0.4,0-0.4-0.2l-0.2-1.2c0-0.2,0-0.4,0.2-0.5c1.4-0.4,3.3-0.7,5.4-0.7
			c4.5,0,6.4,1.7,6.4,5.9v13.1c0,0.3-0.1,0.5-0.4,0.6c-1.1,0.3-3.2,0.5-5.3,0.5c-6,0-7.8-1.3-7.8-5.3c0-3.4,0.8-5.3,6-5.8l4.9-0.5
			c0.1,0,0.2-0.1,0.2-0.3v-2c0-3.2-1.1-4.2-4.4-4.2C572.9,397.7,571,398,569.9,398.2z M578.8,406.5c0-0.1-0.1-0.2-0.2-0.2h-4
			c-3.4,0-4.3,0.9-4.3,3.9c0,3,0.9,3.7,5,3.7c1.1,0,2.6-0.1,3.1-0.2c0.3-0.1,0.4-0.1,0.4-0.3V406.5z"/>
		<path class="st2" d="M591.2,415.7c-2.8,0-3.6-1.1-3.6-4.7v-21.9c0-0.2,0.1-0.4,0.4-0.4h1.8c0.2,0,0.4,0.1,0.4,0.4V411
			c0,2.1,0.3,2.7,1.8,2.7h1.5c0.2,0,0.3,0.1,0.3,0.3l-0.1,1.1c0,0.2-0.1,0.3-0.3,0.3C592.8,415.6,592.1,415.7,591.2,415.7z"/>
		<path class="st2" d="M619.5,405.1c0,7-2.1,10.3-8.5,10.3c-1,0-2.5-0.1-3.3-0.2c-0.2,0-0.3,0-0.3,0.3v6.1c0,0.2-0.1,0.4-0.4,0.4
			h-1.8c-0.2,0-0.4-0.1-0.4-0.4v-24.8c0-0.2,0.1-0.3,0.4-0.4c1.6-0.3,3.6-0.7,5.6-0.7C617.9,395.6,619.5,398.2,619.5,405.1z
			 M607.5,412.6c0,0.3,0,0.4,0.3,0.5c0.9,0.1,2,0.3,3.1,0.3c4.7,0,5.9-2.1,5.9-8.3c0-5.9-1.3-7.4-5.9-7.4c-1.4,0-2.4,0.1-3.1,0.3
			c-0.3,0.1-0.3,0.3-0.3,0.5V412.6z"/>
		<path class="st2" d="M626.5,398.2c-0.2,0-0.4,0-0.4-0.2l-0.2-1.2c0-0.2,0-0.4,0.2-0.5c1.4-0.4,3.3-0.7,5.4-0.7
			c4.5,0,6.4,1.7,6.4,5.9v13.1c0,0.3-0.1,0.5-0.4,0.6c-1.1,0.3-3.2,0.5-5.3,0.5c-6,0-7.8-1.3-7.8-5.3c0-3.4,0.8-5.3,6-5.8l4.9-0.5
			c0.1,0,0.2-0.1,0.2-0.3v-2c0-3.2-1.1-4.2-4.4-4.2C629.5,397.7,627.6,398,626.5,398.2z M635.4,406.5c0-0.1-0.1-0.2-0.2-0.2h-4
			c-3.4,0-4.3,0.9-4.3,3.9c0,3,0.9,3.7,5,3.7c1.1,0,2.6-0.1,3.1-0.2c0.3-0.1,0.4-0.1,0.4-0.3V406.5z"/>
		<path class="st2" d="M648.8,415.7c-2.8,0-3.5-1.5-3.5-3.6v-13.8c0-0.1-0.1-0.2-0.2-0.2h-3c-0.2,0-0.4-0.1-0.4-0.4v-1.3
			c0-0.2,0.1-0.4,0.4-0.4h3c0.1,0,0.2-0.1,0.2-0.2v-4.5c0-0.2,0.1-0.4,0.4-0.4h1.8c0.2,0,0.4,0.1,0.4,0.4v4.5c0,0.1,0.1,0.2,0.2,0.2
			h3.4c0.2,0,0.4,0.1,0.4,0.4v1.3c0,0.2-0.1,0.4-0.4,0.4h-3.4c-0.1,0-0.2,0.1-0.2,0.2v13.4c0,1.7,0.3,2.1,1.8,2.1h1.4
			c0.2,0,0.4,0.1,0.4,0.3l0,1c0,0.2-0.1,0.4-0.3,0.4C650.5,415.6,649.6,415.7,648.8,415.7z"/>
		<path class="st2" d="M656.1,396.3c1.8-0.4,3.6-0.7,5.3-0.7c1.2,0,2.1,0,2.9,0.2c0.1,0,0.2,0.1,0.2,0.3l-0.2,1.7
			c0,0.1-0.1,0.2-0.3,0.2c-0.8-0.1-1.7-0.3-2.7-0.3c-0.8,0-2,0.1-2.8,0.4c-0.3,0.1-0.3,0.2-0.3,0.4V415c0,0.3-0.1,0.4-0.4,0.4h-1.8
			c-0.2,0-0.4-0.1-0.4-0.4v-18.3C655.7,396.5,655.9,396.4,656.1,396.3z"/>
		<path class="st2" d="M680.5,413.8c-1.2,1.4-3,1.9-5.8,1.9c-2.9,0-4.5-0.5-5.7-1.9c-1.3-1.5-2.2-4.7-2.2-8.3c0-3.7,0.8-6.5,2.2-8
			c1.2-1.4,2.9-1.9,5.8-1.9c2.9,0,4.6,0.5,5.8,1.9c1.3,1.5,2.1,4.3,2.1,8C682.6,409.1,681.8,412.3,680.5,413.8z M671,412.7
			c0.7,0.7,1.4,1,3.6,1c2.4,0,3.1-0.3,3.8-1c1-1.1,1.6-3.9,1.6-7.1c0-3.3-0.5-5.8-1.6-6.9c-0.7-0.7-1.4-1-3.7-1
			c-2.4,0-3.1,0.3-3.8,1c-1.1,1.1-1.6,3.6-1.6,6.9C669.4,408.8,669.9,411.6,671,412.7z"/>
		<path class="st2" d="M702.4,401.9V415c0,0.2-0.1,0.4-0.4,0.4h-1.8c-0.2,0-0.4-0.1-0.4-0.4v-12.9c0-3.4-0.9-4.5-4.9-4.5
			c-1.5,0-3,0.1-3.8,0.3c-0.3,0.1-0.4,0.1-0.4,0.4V415c0,0.2-0.1,0.4-0.4,0.4h-1.8c-0.2,0-0.4-0.1-0.4-0.4v-18.3
			c0-0.2,0.1-0.3,0.4-0.4c2-0.4,4.6-0.7,6.4-0.7C700.6,395.6,702.4,397,702.4,401.9z"/>
		<path class="st2" d="M709.8,398.2c-0.2,0-0.4,0-0.4-0.2l-0.2-1.2c0-0.2,0-0.4,0.2-0.5c1.4-0.4,3.3-0.7,5.4-0.7
			c4.5,0,6.4,1.7,6.4,5.9v13.1c0,0.3-0.1,0.5-0.4,0.6c-1.1,0.3-3.2,0.5-5.3,0.5c-6,0-7.8-1.3-7.8-5.3c0-3.4,0.8-5.3,6-5.8l4.9-0.5
			c0.1,0,0.2-0.1,0.2-0.3v-2c0-3.2-1.1-4.2-4.4-4.2C712.8,397.7,711,398,709.8,398.2z M718.7,406.5c0-0.1-0.1-0.2-0.2-0.2h-4
			c-3.4,0-4.3,0.9-4.3,3.9c0,3,0.9,3.7,5,3.7c1.1,0,2.6-0.1,3.1-0.2c0.3-0.1,0.4-0.1,0.4-0.3V406.5z"/>
		<path class="st2" d="M741.6,415.1c0,5.5-2.6,6.8-7.5,6.8c-2,0-4.7-0.3-6.2-0.8c-0.2-0.1-0.2-0.3-0.2-0.4l0.2-1.3
			c0.1-0.2,0.3-0.3,0.5-0.2c1.2,0.4,3.7,0.7,5.4,0.7c4.4,0,5.2-1.2,5.2-5.6c0-0.2-0.1-0.3-0.3-0.3c-0.9,0.1-2.4,0.3-3.4,0.3
			c-6.5,0-8.4-2.4-8.4-9.2c0-6.6,2.2-9.5,8.4-9.5c1.7,0,3.9,0.2,5.9,0.6c0.3,0.1,0.4,0.2,0.4,0.4V415.1z M738.7,412
			c0.3-0.1,0.3-0.2,0.3-0.5v-13.1c0-0.2,0-0.4-0.3-0.4c-0.7-0.2-2.1-0.3-3.4-0.3c-4.4,0-5.6,1.6-5.6,7.3s0.9,7.4,5.7,7.4
			C736.9,412.4,738.1,412.3,738.7,412z"/>
		<path class="st2" d="M756,415.7c-7.3,0-8.8-4.5-8.8-10.1c0-5.7,1.8-10,7.8-10c6,0,7.1,3.5,7.1,8.3v0.8c0,1.4-0.3,1.6-0.9,1.6H750
			c-0.2,0-0.2,0.1-0.2,0.3c0,5.2,1.9,7.1,6.7,7.1c1.6,0,3.4-0.4,4.5-0.9c0.3-0.1,0.5-0.1,0.5,0.2l0.1,1.3c0,0.2-0.1,0.3-0.3,0.4
			C759.9,415.4,758.1,415.7,756,415.7z M750,404.4h9.2c0.3,0,0.4-0.1,0.4-1.3c0-3.6-1-5.5-4.7-5.5c-4.2,0-5.2,3.1-5.2,6.5
			C749.8,404.3,749.8,404.4,750,404.4z"/>
	</g>
</g>
</svg>
