<svg width="249" height="141" xmlns="http://www.w3.org/2000/svg" xmlns:xlink="http://www.w3.org/1999/xlink" overflow="hidden"><defs><clipPath id="clip0"><rect x="754" y="212" width="249" height="141"/></clipPath><clipPath id="clip1"><rect x="754" y="213" width="248" height="139"/></clipPath><clipPath id="clip2"><rect x="754" y="213" width="248" height="139"/></clipPath></defs><g clip-path="url(#clip0)" transform="translate(-754 -212)"><g clip-path="url(#clip1)"><g clip-path="url(#clip2)"><path d="M314.9 137.565 234.857 137.565 245.632 116.789 314.9 116.789Z" fill="#2A7DE1" transform="matrix(1.02002 0 0 1 666.575 167.945)"/><path d="M124.076 119.115 124.076 135.239 122.138 135.239 122.138 121.828 113.959 131.751 113.804 131.751 105.625 121.828 105.625 135.239 103.726 135.239 103.726 119.115 105.858 119.115 113.92 128.96 121.983 119.115 124.076 119.115Z" transform="matrix(1.02002 0 0 1 666.575 167.945)"/><path d="M136.325 135.239 136.325 119.115 138.263 119.115 138.263 135.239 136.325 135.239Z" transform="matrix(1.02002 0 0 1 666.575 167.945)"/><path d="M167.605 119.115 167.605 135.239 165.9 135.239 152.372 121.595 152.372 135.239 150.473 135.239 150.473 119.115 152.566 119.115 165.706 132.41 165.706 119.115 167.605 119.115Z" transform="matrix(1.02002 0 0 1 666.575 167.945)"/><path d="M194.855 120.859 187.219 120.859 187.219 135.239 185.281 135.239 185.281 120.859 177.683 120.859 177.683 119.115 194.855 119.115 194.855 120.859Z" transform="matrix(1.02002 0 0 1 666.575 167.945)"/><path d="M205.01 119.115 211.794 127.836 218.499 119.115 220.786 119.115 212.685 129.58 212.685 135.239 210.747 135.239 210.747 129.58 202.646 119.115 205.01 119.115Z" transform="matrix(1.02002 0 0 1 666.575 167.945)"/><path d="M227.182 134.193C227.182 133.456 227.763 132.914 228.577 132.914 229.391 132.914 229.973 133.456 229.973 134.193 229.973 134.929 229.391 135.472 228.577 135.472 227.763 135.472 227.182 134.929 227.182 134.193Z" transform="matrix(1.02002 0 0 1 666.575 167.945)"/><path d="M253.85 131.828 244.121 131.828 242.377 135.239 238.423 135.239 246.95 119.115 250.982 119.115 259.509 135.239 255.517 135.239 253.85 131.828ZM252.338 128.844 249.005 122.293 245.671 128.844 252.338 128.844Z" fill="#FFFFFF" transform="matrix(1.02002 0 0 1 666.575 167.945)"/><path d="M282.766 135.239 278.154 129.774 272.339 129.774 272.339 135.239 268.696 135.239 268.696 119.115 279.82 119.115C283.774 119.115 286.72 120.936 286.72 124.425 286.72 127.177 284.898 128.882 282.223 129.503L287.185 135.239 282.766 135.239ZM279.588 126.712C281.526 126.712 282.96 126.247 282.96 124.464 282.96 122.681 281.526 122.215 279.588 122.215L272.301 122.215 272.301 126.712 279.588 126.712Z" fill="#FFFFFF" transform="matrix(1.02002 0 0 1 666.575 167.945)"/><path d="M312.574 122.293 305.519 122.293 305.519 135.239 301.837 135.239 301.837 122.293 294.821 122.293 294.821 119.115 312.535 119.115 312.535 122.293Z" fill="#FFFFFF" transform="matrix(1.02002 0 0 1 666.575 167.945)"/><path d="M128.921 157.023C128.921 159.737 128.107 161.016 125.626 161.016 125.2 161.016 124.657 160.977 124.347 160.938 124.27 160.938 124.231 160.938 124.231 161.055L124.231 163.419C124.231 163.497 124.192 163.574 124.076 163.574L123.378 163.574C123.301 163.574 123.223 163.535 123.223 163.419L123.223 153.806C123.223 153.729 123.262 153.69 123.378 153.651 123.998 153.535 124.774 153.38 125.549 153.38 128.262 153.341 128.921 154.349 128.921 157.023ZM124.231 159.931C124.231 160.047 124.231 160.086 124.347 160.124 124.696 160.163 125.123 160.241 125.549 160.241 127.371 160.241 127.836 159.427 127.836 157.023 127.836 154.736 127.332 154.155 125.549 154.155 125.006 154.155 124.619 154.194 124.347 154.271 124.231 154.31 124.231 154.388 124.231 154.465L124.231 159.931Z" fill="#939598" transform="matrix(1.02002 0 0 1 666.575 167.945)"/><path d="M131.286 151.907C131.208 151.907 131.131 151.868 131.131 151.752L131.131 150.822C131.131 150.744 131.169 150.666 131.286 150.666L132.138 150.666C132.216 150.666 132.293 150.705 132.293 150.822L132.293 151.752C132.293 151.829 132.255 151.907 132.138 151.907L131.286 151.907ZM131.363 161.016C131.286 161.016 131.208 160.977 131.208 160.861L131.208 153.651C131.208 153.574 131.247 153.496 131.363 153.496L132.061 153.496C132.138 153.496 132.216 153.535 132.216 153.651L132.216 160.861C132.216 160.938 132.177 161.016 132.061 161.016L131.363 161.016Z" fill="#939598" transform="matrix(1.02002 0 0 1 666.575 167.945)"/><path d="M139.813 160.396C139.348 160.938 138.65 161.132 137.565 161.132 136.441 161.132 135.821 160.938 135.356 160.396 134.852 159.814 134.503 158.574 134.503 157.178 134.503 155.744 134.813 154.659 135.356 154.077 135.821 153.535 136.48 153.341 137.604 153.341 138.728 153.341 139.387 153.535 139.852 154.077 140.356 154.659 140.666 155.744 140.666 157.178 140.627 158.574 140.317 159.814 139.813 160.396ZM136.131 159.969C136.402 160.241 136.674 160.357 137.526 160.357 138.457 160.357 138.728 160.241 138.999 159.969 139.426 159.543 139.619 158.458 139.619 157.217 139.619 155.938 139.426 154.969 138.999 154.543 138.728 154.271 138.457 154.155 137.565 154.155 136.635 154.155 136.363 154.271 136.092 154.543 135.666 154.969 135.472 155.938 135.472 157.217 135.511 158.458 135.704 159.543 136.131 159.969Z" fill="#939598" transform="matrix(1.02002 0 0 1 666.575 167.945)"/><path d="M148.302 155.783 148.302 160.861C148.302 160.938 148.263 161.016 148.147 161.016L147.449 161.016C147.372 161.016 147.294 160.977 147.294 160.861L147.294 155.861C147.294 154.543 146.945 154.116 145.395 154.116 144.813 154.116 144.232 154.155 143.922 154.233 143.806 154.271 143.767 154.271 143.767 154.388L143.767 160.861C143.767 160.938 143.728 161.016 143.612 161.016L142.914 161.016C142.837 161.016 142.759 160.977 142.759 160.861L142.759 153.767C142.759 153.69 142.798 153.651 142.914 153.612 143.689 153.457 144.697 153.341 145.395 153.341 147.604 153.341 148.302 153.884 148.302 155.783Z" fill="#939598" transform="matrix(1.02002 0 0 1 666.575 167.945)"/><path d="M153.806 161.132C150.977 161.132 150.395 159.388 150.395 157.217 150.395 155.008 151.093 153.341 153.419 153.341 155.744 153.341 156.171 154.698 156.171 156.558L156.171 156.868C156.171 157.411 156.054 157.489 155.822 157.489L151.519 157.489C151.442 157.489 151.442 157.527 151.442 157.605 151.442 159.62 152.178 160.357 154.039 160.357 154.659 160.357 155.357 160.202 155.783 160.008 155.899 159.969 155.977 159.969 155.977 160.086L156.016 160.589C156.016 160.667 155.977 160.706 155.899 160.745 155.318 161.016 154.62 161.132 153.806 161.132ZM151.48 156.752 155.047 156.752C155.163 156.752 155.202 156.713 155.202 156.248 155.202 154.853 154.814 154.116 153.38 154.116 151.752 154.116 151.364 155.318 151.364 156.636 151.403 156.713 151.442 156.752 151.48 156.752Z" fill="#939598" transform="matrix(1.02002 0 0 1 666.575 167.945)"/><path d="M161.365 161.132C158.535 161.132 157.954 159.388 157.954 157.217 157.954 155.008 158.651 153.341 160.977 153.341 163.303 153.341 163.729 154.698 163.729 156.558L163.729 156.868C163.729 157.411 163.613 157.489 163.38 157.489L159.078 157.489C159 157.489 159 157.527 159 157.605 159 159.62 159.737 160.357 161.597 160.357 162.217 160.357 162.915 160.202 163.342 160.008 163.458 159.969 163.535 159.969 163.535 160.086L163.574 160.589C163.574 160.667 163.535 160.706 163.458 160.745 162.915 161.016 162.179 161.132 161.365 161.132ZM159.078 156.752 162.644 156.752C162.76 156.752 162.799 156.713 162.799 156.248 162.799 154.853 162.411 154.116 160.977 154.116 159.349 154.116 158.961 155.318 158.961 156.636 159 156.713 159 156.752 159.078 156.752Z" fill="#939598" transform="matrix(1.02002 0 0 1 666.575 167.945)"/><path d="M165.977 153.612C166.675 153.457 167.373 153.341 168.032 153.341 168.497 153.341 168.846 153.341 169.156 153.419 169.195 153.419 169.233 153.457 169.233 153.535L169.156 154.194C169.156 154.233 169.117 154.271 169.04 154.271 168.729 154.233 168.381 154.155 167.993 154.155 167.683 154.155 167.218 154.194 166.908 154.31 166.791 154.349 166.791 154.388 166.791 154.465L166.791 160.861C166.791 160.977 166.753 161.016 166.636 161.016L165.939 161.016C165.861 161.016 165.784 160.977 165.784 160.861L165.784 153.767C165.822 153.69 165.9 153.651 165.977 153.612Z" fill="#939598" transform="matrix(1.02002 0 0 1 666.575 167.945)"/><path d="M170.784 151.907C170.706 151.907 170.629 151.868 170.629 151.752L170.629 150.822C170.629 150.744 170.667 150.666 170.784 150.666L171.637 150.666C171.714 150.666 171.792 150.705 171.792 150.822L171.792 151.752C171.792 151.829 171.753 151.907 171.637 151.907L170.784 151.907ZM170.861 161.016C170.784 161.016 170.706 160.977 170.706 160.861L170.706 153.651C170.706 153.574 170.745 153.496 170.861 153.496L171.559 153.496C171.637 153.496 171.714 153.535 171.714 153.651L171.714 160.861C171.714 160.938 171.675 161.016 171.559 161.016L170.861 161.016Z" fill="#939598" transform="matrix(1.02002 0 0 1 666.575 167.945)"/><path d="M179.776 155.783 179.776 160.861C179.776 160.938 179.738 161.016 179.621 161.016L178.924 161.016C178.846 161.016 178.769 160.977 178.769 160.861L178.769 155.861C178.769 154.543 178.42 154.116 176.869 154.116 176.288 154.116 175.706 154.155 175.396 154.233 175.28 154.271 175.241 154.271 175.241 154.388L175.241 160.861C175.241 160.938 175.203 161.016 175.086 161.016L174.427 161.016C174.35 161.016 174.272 160.977 174.272 160.861L174.272 153.767C174.272 153.69 174.311 153.651 174.427 153.612 175.203 153.457 176.21 153.341 176.908 153.341 179.118 153.341 179.776 153.884 179.776 155.783Z" fill="#939598" transform="matrix(1.02002 0 0 1 666.575 167.945)"/><path d="M187.568 160.9C187.568 163.031 186.56 163.535 184.66 163.535 183.885 163.535 182.839 163.419 182.257 163.225 182.18 163.186 182.18 163.109 182.18 163.07L182.257 162.566C182.296 162.489 182.374 162.45 182.451 162.489 182.916 162.644 183.885 162.76 184.544 162.76 186.25 162.76 186.56 162.295 186.56 160.589 186.56 160.512 186.521 160.473 186.443 160.473 186.095 160.512 185.513 160.589 185.126 160.589 182.606 160.589 181.87 159.659 181.87 157.023 181.87 154.465 182.722 153.341 185.126 153.341 185.785 153.341 186.637 153.419 187.413 153.574 187.529 153.612 187.568 153.651 187.568 153.729L187.568 160.9ZM186.482 159.698C186.599 159.659 186.599 159.62 186.599 159.504L186.599 154.426C186.599 154.349 186.599 154.271 186.482 154.271 186.211 154.194 185.668 154.155 185.164 154.155 183.459 154.155 182.994 154.775 182.994 156.985 182.994 159.194 183.343 159.853 185.203 159.853 185.785 159.853 186.211 159.814 186.482 159.698Z" fill="#939598" transform="matrix(1.02002 0 0 1 666.575 167.945)"/><path d="M192.568 157.256C192.568 154.543 193.421 153.341 195.901 153.341 196.366 153.341 196.87 153.419 197.142 153.457 197.219 153.457 197.258 153.419 197.258 153.341L197.258 150.783C197.258 150.705 197.297 150.628 197.413 150.628L198.111 150.628C198.188 150.628 198.266 150.666 198.266 150.783L198.266 160.706C198.266 160.783 198.227 160.822 198.111 160.861 197.491 161.016 196.754 161.132 195.94 161.132 193.188 161.132 192.568 159.892 192.568 157.256ZM197.219 154.504C197.219 154.388 197.219 154.349 197.103 154.31 196.832 154.233 196.328 154.155 195.863 154.155 194.041 154.155 193.576 154.853 193.576 157.256 193.576 159.582 194.002 160.357 195.863 160.357 196.328 160.357 196.793 160.318 197.064 160.241 197.18 160.202 197.18 160.124 197.18 160.047L197.18 154.504Z" fill="#939598" transform="matrix(1.02002 0 0 1 666.575 167.945)"/><path d="M200.863 151.907C200.785 151.907 200.708 151.868 200.708 151.752L200.708 150.822C200.708 150.744 200.747 150.666 200.863 150.666L201.716 150.666C201.793 150.666 201.871 150.705 201.871 150.822L201.871 151.752C201.871 151.829 201.832 151.907 201.716 151.907L200.863 151.907ZM200.94 161.016C200.863 161.016 200.785 160.977 200.785 160.861L200.785 153.651C200.785 153.574 200.824 153.496 200.94 153.496L201.638 153.496C201.716 153.496 201.793 153.535 201.793 153.651L201.793 160.861C201.793 160.938 201.754 161.016 201.638 161.016L200.94 161.016Z" fill="#939598" transform="matrix(1.02002 0 0 1 666.575 167.945)"/><path d="M209.817 160.9C209.817 163.031 208.809 163.535 206.91 163.535 206.134 163.535 205.088 163.419 204.506 163.225 204.429 163.186 204.429 163.109 204.429 163.07L204.506 162.566C204.545 162.489 204.623 162.45 204.7 162.489 205.165 162.644 206.134 162.76 206.793 162.76 208.499 162.76 208.809 162.295 208.809 160.589 208.809 160.512 208.77 160.473 208.693 160.473 208.344 160.512 207.762 160.589 207.375 160.589 204.855 160.589 204.119 159.659 204.119 157.023 204.119 154.465 204.972 153.341 207.375 153.341 208.034 153.341 208.886 153.419 209.662 153.574 209.778 153.612 209.817 153.651 209.817 153.729L209.817 160.9ZM208.693 159.698C208.809 159.659 208.809 159.62 208.809 159.504L208.809 154.426C208.809 154.349 208.809 154.271 208.693 154.271 208.421 154.194 207.879 154.155 207.375 154.155 205.669 154.155 205.204 154.775 205.204 156.985 205.204 159.194 205.553 159.853 207.414 159.853 207.995 159.853 208.46 159.814 208.693 159.698Z" fill="#939598" transform="matrix(1.02002 0 0 1 666.575 167.945)"/><path d="M212.453 151.907C212.375 151.907 212.297 151.868 212.297 151.752L212.297 150.822C212.297 150.744 212.336 150.666 212.453 150.666L213.305 150.666C213.383 150.666 213.46 150.705 213.46 150.822L213.46 151.752C213.46 151.829 213.422 151.907 213.305 151.907L212.453 151.907ZM212.53 161.016C212.453 161.016 212.375 160.977 212.375 160.861L212.375 153.651C212.375 153.574 212.414 153.496 212.53 153.496L213.228 153.496C213.305 153.496 213.383 153.535 213.383 153.651L213.383 160.861C213.383 160.938 213.344 161.016 213.228 161.016L212.53 161.016Z" fill="#939598" transform="matrix(1.02002 0 0 1 666.575 167.945)"/><path d="M217.685 161.132C216.6 161.132 216.329 160.551 216.329 159.737L216.329 154.388C216.329 154.349 216.29 154.31 216.251 154.31L215.088 154.31C215.011 154.31 214.933 154.271 214.933 154.155L214.933 153.651C214.933 153.574 214.972 153.496 215.088 153.496L216.251 153.496C216.29 153.496 216.329 153.457 216.329 153.419L216.329 151.674C216.329 151.597 216.367 151.519 216.484 151.519L217.181 151.519C217.259 151.519 217.337 151.558 217.337 151.674L217.337 153.419C217.337 153.457 217.375 153.496 217.414 153.496L218.732 153.496C218.809 153.496 218.887 153.535 218.887 153.651L218.887 154.155C218.887 154.233 218.848 154.31 218.732 154.31L217.414 154.31C217.375 154.31 217.337 154.349 217.337 154.388L217.337 159.582C217.337 160.241 217.453 160.396 218.034 160.396L218.577 160.396C218.654 160.396 218.732 160.434 218.732 160.512L218.732 160.9C218.732 160.977 218.693 161.055 218.616 161.055 218.383 161.093 218.034 161.132 217.685 161.132Z" fill="#939598" transform="matrix(1.02002 0 0 1 666.575 167.945)"/><path d="M220.903 154.349C220.825 154.349 220.748 154.349 220.748 154.271L220.67 153.806C220.67 153.729 220.67 153.651 220.748 153.612 221.29 153.457 222.027 153.341 222.841 153.341 224.585 153.341 225.321 154 225.321 155.628L225.321 160.706C225.321 160.822 225.283 160.9 225.166 160.938 224.74 161.055 223.926 161.132 223.112 161.132 220.786 161.132 220.089 160.628 220.089 159.078 220.089 157.76 220.399 157.023 222.414 156.83L224.314 156.636C224.352 156.636 224.391 156.597 224.391 156.519L224.391 155.744C224.391 154.504 223.965 154.116 222.686 154.116 222.065 154.155 221.329 154.271 220.903 154.349ZM224.352 157.566C224.352 157.527 224.314 157.489 224.275 157.489L222.724 157.489C221.406 157.489 221.058 157.837 221.058 159 221.058 160.163 221.406 160.434 222.996 160.434 223.422 160.434 224.004 160.396 224.197 160.357 224.314 160.318 224.352 160.318 224.352 160.241L224.352 157.566Z" fill="#939598" transform="matrix(1.02002 0 0 1 666.575 167.945)"/><path d="M229.159 161.132C228.073 161.132 227.763 160.706 227.763 159.31L227.763 150.822C227.763 150.744 227.802 150.666 227.918 150.666L228.616 150.666C228.694 150.666 228.771 150.705 228.771 150.822L228.771 159.31C228.771 160.124 228.887 160.357 229.469 160.357L230.05 160.357C230.128 160.357 230.167 160.396 230.167 160.473L230.128 160.9C230.128 160.977 230.089 161.016 230.012 161.016 229.779 161.093 229.508 161.132 229.159 161.132Z" fill="#939598" transform="matrix(1.02002 0 0 1 666.575 167.945)"/><path d="M240.128 157.023C240.128 159.737 239.314 161.016 236.834 161.016 236.446 161.016 235.865 160.977 235.554 160.938 235.477 160.938 235.438 160.938 235.438 161.055L235.438 163.419C235.438 163.497 235.399 163.574 235.283 163.574L234.585 163.574C234.508 163.574 234.43 163.535 234.43 163.419L234.43 153.806C234.43 153.729 234.469 153.69 234.585 153.651 235.206 153.535 235.981 153.38 236.756 153.38 239.508 153.341 240.128 154.349 240.128 157.023ZM235.477 159.931C235.477 160.047 235.477 160.086 235.593 160.124 235.942 160.163 236.368 160.241 236.795 160.241 238.617 160.241 239.082 159.427 239.082 157.023 239.082 154.736 238.578 154.155 236.795 154.155 236.252 154.155 235.865 154.194 235.593 154.271 235.477 154.31 235.477 154.388 235.477 154.465L235.477 159.931Z" fill="#939598" transform="matrix(1.02002 0 0 1 666.575 167.945)"/><path d="M242.842 154.349C242.764 154.349 242.687 154.349 242.687 154.271L242.609 153.806C242.609 153.729 242.609 153.651 242.687 153.612 243.229 153.457 243.966 153.341 244.78 153.341 246.524 153.341 247.26 154 247.26 155.628L247.26 160.706C247.26 160.822 247.222 160.9 247.105 160.938 246.679 161.055 245.865 161.132 245.051 161.132 242.725 161.132 242.028 160.628 242.028 159.078 242.028 157.76 242.338 157.023 244.353 156.83L246.253 156.636C246.291 156.636 246.33 156.597 246.33 156.519L246.33 155.744C246.33 154.504 245.904 154.116 244.625 154.116 244.005 154.155 243.268 154.271 242.842 154.349ZM246.291 157.566C246.291 157.527 246.253 157.489 246.214 157.489L244.663 157.489C243.346 157.489 242.997 157.837 242.997 159 242.997 160.163 243.346 160.434 244.935 160.434 245.361 160.434 245.943 160.396 246.136 160.357 246.253 160.318 246.291 160.318 246.291 160.241L246.291 157.566Z" fill="#939598" transform="matrix(1.02002 0 0 1 666.575 167.945)"/><path d="M251.485 161.132C250.4 161.132 250.129 160.551 250.129 159.737L250.129 154.388C250.129 154.349 250.09 154.31 250.051 154.31L248.888 154.31C248.811 154.31 248.733 154.271 248.733 154.155L248.733 153.651C248.733 153.574 248.772 153.496 248.888 153.496L250.051 153.496C250.09 153.496 250.129 153.457 250.129 153.419L250.129 151.674C250.129 151.597 250.168 151.519 250.284 151.519L250.982 151.519C251.059 151.519 251.137 151.558 251.137 151.674L251.137 153.419C251.137 153.457 251.175 153.496 251.214 153.496L252.532 153.496C252.61 153.496 252.687 153.535 252.687 153.651L252.687 154.155C252.687 154.233 252.648 154.31 252.532 154.31L251.214 154.31C251.175 154.31 251.137 154.349 251.137 154.388L251.137 159.582C251.137 160.241 251.253 160.396 251.834 160.396L252.377 160.396C252.455 160.396 252.532 160.434 252.532 160.512L252.532 160.9C252.532 160.977 252.493 161.055 252.416 161.055 252.144 161.093 251.796 161.132 251.485 161.132Z" fill="#939598" transform="matrix(1.02002 0 0 1 666.575 167.945)"/><path d="M254.315 153.612C255.013 153.457 255.711 153.341 256.369 153.341 256.835 153.341 257.183 153.341 257.494 153.419 257.532 153.419 257.571 153.457 257.571 153.535L257.494 154.194C257.494 154.233 257.455 154.271 257.377 154.271 257.067 154.233 256.718 154.155 256.331 154.155 256.021 154.155 255.555 154.194 255.245 154.31 255.129 154.349 255.129 154.388 255.129 154.465L255.129 160.861C255.129 160.977 255.09 161.016 254.974 161.016L254.276 161.016C254.199 161.016 254.121 160.977 254.121 160.861L254.121 153.767C254.16 153.69 254.238 153.651 254.315 153.612Z" fill="#939598" transform="matrix(1.02002 0 0 1 666.575 167.945)"/><path d="M263.773 160.396C263.308 160.938 262.61 161.132 261.525 161.132 260.401 161.132 259.78 160.938 259.315 160.396 258.811 159.814 258.463 158.574 258.463 157.178 258.463 155.744 258.773 154.659 259.315 154.077 259.78 153.535 260.439 153.341 261.564 153.341 262.688 153.341 263.347 153.535 263.812 154.077 264.316 154.659 264.626 155.744 264.626 157.178 264.587 158.574 264.277 159.814 263.773 160.396ZM260.091 159.969C260.362 160.241 260.633 160.357 261.486 160.357 262.416 160.357 262.688 160.241 262.959 159.969 263.347 159.543 263.579 158.458 263.579 157.217 263.579 155.938 263.385 154.969 262.959 154.543 262.688 154.271 262.416 154.155 261.525 154.155 260.594 154.155 260.323 154.271 260.052 154.543 259.625 154.969 259.432 155.938 259.432 157.217 259.47 158.458 259.664 159.543 260.091 159.969Z" fill="#939598" transform="matrix(1.02002 0 0 1 666.575 167.945)"/><path d="M272.262 155.783 272.262 160.861C272.262 160.938 272.223 161.016 272.107 161.016L271.409 161.016C271.331 161.016 271.254 160.977 271.254 160.861L271.254 155.861C271.254 154.543 270.905 154.116 269.355 154.116 268.773 154.116 268.192 154.155 267.882 154.233 267.765 154.271 267.727 154.271 267.727 154.388L267.727 160.861C267.727 160.938 267.688 161.016 267.572 161.016L266.874 161.016C266.796 161.016 266.719 160.977 266.719 160.861L266.719 153.767C266.719 153.69 266.758 153.651 266.874 153.612 267.649 153.457 268.657 153.341 269.355 153.341 271.564 153.341 272.262 153.884 272.262 155.783Z" fill="#939598" transform="matrix(1.02002 0 0 1 666.575 167.945)"/><path d="M275.13 154.349C275.053 154.349 274.975 154.349 274.975 154.271L274.898 153.806C274.898 153.729 274.898 153.651 274.975 153.612 275.518 153.457 276.254 153.341 277.068 153.341 278.812 153.341 279.549 154 279.549 155.628L279.549 160.706C279.549 160.822 279.51 160.9 279.394 160.938 278.967 161.055 278.154 161.132 277.34 161.132 275.014 161.132 274.316 160.628 274.316 159.078 274.316 157.76 274.626 157.023 276.642 156.83L278.541 156.636C278.58 156.636 278.619 156.597 278.619 156.519L278.619 155.744C278.619 154.504 278.192 154.116 276.913 154.116 276.293 154.155 275.595 154.271 275.13 154.349ZM278.58 157.566C278.58 157.527 278.541 157.489 278.502 157.489L276.952 157.489C275.634 157.489 275.285 157.837 275.285 159 275.285 160.163 275.634 160.434 277.223 160.434 277.65 160.434 278.231 160.396 278.425 160.357 278.541 160.318 278.58 160.318 278.58 160.241L278.58 157.566Z" fill="#939598" transform="matrix(1.02002 0 0 1 666.575 167.945)"/><path d="M287.456 160.9C287.456 163.031 286.448 163.535 284.549 163.535 283.774 163.535 282.727 163.419 282.146 163.225 282.068 163.186 282.068 163.109 282.068 163.07L282.146 162.566C282.185 162.489 282.262 162.45 282.34 162.489 282.805 162.644 283.774 162.76 284.433 162.76 286.138 162.76 286.448 162.295 286.448 160.589 286.448 160.512 286.41 160.473 286.332 160.473 285.983 160.512 285.402 160.589 285.014 160.589 282.495 160.589 281.758 159.659 281.758 157.023 281.758 154.465 282.611 153.341 285.014 153.341 285.673 153.341 286.526 153.419 287.301 153.574 287.418 153.612 287.456 153.651 287.456 153.729L287.456 160.9ZM286.332 159.698C286.448 159.659 286.448 159.62 286.448 159.504L286.448 154.426C286.448 154.349 286.448 154.271 286.332 154.271 286.061 154.194 285.518 154.155 285.014 154.155 283.309 154.155 282.844 154.775 282.844 156.985 282.844 159.194 283.193 159.853 285.053 159.853 285.635 159.853 286.1 159.814 286.332 159.698Z" fill="#939598" transform="matrix(1.02002 0 0 1 666.575 167.945)"/><path d="M293.038 161.132C290.208 161.132 289.627 159.388 289.627 157.217 289.627 155.008 290.325 153.341 292.65 153.341 294.976 153.341 295.402 154.698 295.402 156.558L295.402 156.868C295.402 157.411 295.286 157.489 295.054 157.489L290.712 157.489C290.635 157.489 290.635 157.527 290.635 157.605 290.635 159.62 291.371 160.357 293.232 160.357 293.852 160.357 294.55 160.202 294.976 160.008 295.092 159.969 295.17 159.969 295.17 160.086L295.209 160.589C295.209 160.667 295.17 160.706 295.092 160.745 294.55 161.016 293.852 161.132 293.038 161.132ZM290.712 156.752 294.278 156.752C294.395 156.752 294.433 156.713 294.433 156.248 294.433 154.853 294.046 154.116 292.612 154.116 290.984 154.116 290.596 155.318 290.596 156.636 290.635 156.713 290.635 156.752 290.712 156.752Z" fill="#939598" transform="matrix(1.02002 0 0 1 666.575 167.945)"/><path d="M189.467 68.7244 192.025 70.3524 192.025 94.1908 189.467 95.8188 189.467 68.7244M187.529 65.1583 187.529 99.3848 193.963 95.2373 193.963 69.3058 187.529 65.1583 187.529 65.1583Z" transform="matrix(1.02002 0 0 1 666.575 167.945)"/><path d="M229.159 68.7244 229.159 95.8188 226.601 94.1908 226.601 70.3524 229.159 68.7244M231.097 65.1583 224.662 69.3058 224.662 95.2373 231.097 99.3848 231.097 65.1583 231.097 65.1583Z" transform="matrix(1.02002 0 0 1 666.575 167.945)"/><path d="M209.545 82.6786 189.467 69.8485 189.467 67.5615 209.545 80.3916 229.159 67.8716 229.159 70.1586Z" fill="#2A7DE1" transform="matrix(1.02002 0 0 1 666.575 167.945)"/><path d="M209.545 88.1052 189.467 75.2751 189.467 72.9882 209.545 85.8183 229.159 73.2983 229.159 75.5852Z" fill="#2A7DE1" transform="matrix(1.02002 0 0 1 666.575 167.945)"/></g></g></g></svg>