<svg width="249" height="141" xmlns="http://www.w3.org/2000/svg" xmlns:xlink="http://www.w3.org/1999/xlink" overflow="hidden"><defs><clipPath id="clip0"><rect x="350" y="158" width="249" height="141"/></clipPath><clipPath id="clip1"><rect x="350" y="159" width="248" height="140"/></clipPath><clipPath id="clip2"><rect x="350" y="159" width="248" height="140"/></clipPath></defs><g clip-path="url(#clip0)" transform="translate(-350 -158)"><g clip-path="url(#clip1)"><g clip-path="url(#clip2)"><path d="M-1.1847 0 427.675 0 427.675 232.99-1.1847 232.99Z" transform="matrix(1 0 0 1.00147 262.766 112.52)"/><path d="M320.816 140.15 239.269 140.15 250.247 118.983 320.816 118.983Z" fill="#2A7DE1" transform="matrix(1 0 0 1.00147 262.766 112.52)"/><path d="M126.407 121.352 126.407 137.78 124.433 137.78 124.433 124.117 116.1 134.226 115.942 134.226 107.61 124.117 107.61 137.78 105.675 137.78 105.675 121.352 107.847 121.352 116.061 131.383 124.275 121.352 126.407 121.352Z" fill="#FFFFFF" transform="matrix(1 0 0 1.00147 262.766 112.52)"/><path d="M138.886 137.78 138.886 121.352 140.86 121.352 140.86 137.78 138.886 137.78Z" fill="#FFFFFF" transform="matrix(1 0 0 1.00147 262.766 112.52)"/><path d="M170.754 121.352 170.754 137.78 169.017 137.78 155.235 123.88 155.235 137.78 153.3 137.78 153.3 121.352 155.432 121.352 168.819 134.897 168.819 121.352 170.754 121.352Z" fill="#FFFFFF" transform="matrix(1 0 0 1.00147 262.766 112.52)"/><path d="M198.516 123.129 190.736 123.129 190.736 137.78 188.762 137.78 188.762 123.129 181.022 123.129 181.022 121.352 198.516 121.352 198.516 123.129Z" fill="#FFFFFF" transform="matrix(1 0 0 1.00147 262.766 112.52)"/><path d="M208.862 121.352 215.773 130.238 222.604 121.352 224.934 121.352 216.681 132.015 216.681 137.78 214.706 137.78 214.706 132.015 206.453 121.352 208.862 121.352Z" fill="#FFFFFF" transform="matrix(1 0 0 1.00147 262.766 112.52)"/><path d="M231.45 136.714C231.45 135.964 232.042 135.411 232.872 135.411 233.701 135.411 234.293 135.964 234.293 136.714 234.293 137.464 233.701 138.017 232.872 138.017 232.042 138.017 231.45 137.464 231.45 136.714Z" fill="#FFFFFF" transform="matrix(1 0 0 1.00147 262.766 112.52)"/><path d="M258.619 134.305 248.707 134.305 246.93 137.78 242.902 137.78 251.59 121.352 255.697 121.352 264.385 137.78 260.317 137.78 258.619 134.305ZM257.079 131.264 253.683 124.591 250.287 131.264 257.079 131.264Z" transform="matrix(1 0 0 1.00147 262.766 112.52)"/><path d="M288.079 137.78 283.379 132.212 277.456 132.212 277.456 137.78 273.744 137.78 273.744 121.352 285.077 121.352C289.105 121.352 292.107 123.208 292.107 126.762 292.107 129.566 290.251 131.304 287.526 131.936L292.58 137.78 288.079 137.78ZM284.84 129.092C286.815 129.092 288.276 128.618 288.276 126.802 288.276 124.985 286.815 124.512 284.84 124.512L277.416 124.512 277.416 129.092 284.84 129.092Z" transform="matrix(1 0 0 1.00147 262.766 112.52)"/><path d="M318.446 124.591 311.259 124.591 311.259 137.78 307.508 137.78 307.508 124.591 300.36 124.591 300.36 121.352 318.407 121.352 318.407 124.591Z" transform="matrix(1 0 0 1.00147 262.766 112.52)"/><path d="M193.026 70.0155 195.633 71.6741 195.633 95.9604 193.026 97.6189 193.026 70.0155M191.052 66.3825 191.052 101.252 197.607 97.0266 197.607 70.6079 191.052 66.3825 191.052 66.3825Z" fill="#FFFFFF" transform="matrix(1 0 0 1.00147 262.766 112.52)"/><path d="M233.464 70.0155 233.464 97.6189 230.858 95.9604 230.858 71.6741 233.464 70.0155M235.439 66.3825 228.883 70.6079 228.883 97.0266 235.439 101.252 235.439 66.3825 235.439 66.3825Z" fill="#FFFFFF" transform="matrix(1 0 0 1.00147 262.766 112.52)"/><path d="M213.482 84.2319 193.026 71.1607 193.026 68.8308 213.482 81.902 233.464 69.1468 233.464 71.4767Z" fill="#2A7DE1" transform="matrix(1 0 0 1.00147 262.766 112.52)"/><path d="M213.482 89.7605 193.026 76.6893 193.026 74.3594 213.482 87.4306 233.464 74.6753 233.464 77.0052Z" fill="#2A7DE1" transform="matrix(1 0 0 1.00147 262.766 112.52)"/><path d="M131.343 159.973C131.343 162.738 130.514 164.041 127.987 164.041 127.552 164.041 126.999 164.001 126.683 163.962 126.605 163.962 126.565 163.962 126.565 164.08L126.565 166.489C126.565 166.568 126.526 166.647 126.407 166.647L125.696 166.647C125.617 166.647 125.538 166.608 125.538 166.489L125.538 156.696C125.538 156.617 125.578 156.577 125.696 156.538 126.328 156.419 127.118 156.261 127.908 156.261 130.672 156.222 131.343 157.249 131.343 159.973ZM126.565 162.935C126.565 163.054 126.565 163.093 126.683 163.133 127.039 163.172 127.473 163.251 127.908 163.251 129.764 163.251 130.238 162.422 130.238 159.973 130.238 157.644 129.724 157.051 127.908 157.051 127.355 157.051 126.96 157.091 126.683 157.17 126.565 157.209 126.565 157.288 126.565 157.367L126.565 162.935Z" fill="#939598" transform="matrix(1 0 0 1.00147 262.766 112.52)"/><path d="M133.752 154.761C133.673 154.761 133.594 154.721 133.594 154.603L133.594 153.655C133.594 153.576 133.634 153.497 133.752 153.497L134.621 153.497C134.7 153.497 134.779 153.537 134.779 153.655L134.779 154.603C134.779 154.682 134.739 154.761 134.621 154.761L133.752 154.761ZM133.831 164.041C133.752 164.041 133.673 164.001 133.673 163.883L133.673 156.538C133.673 156.459 133.713 156.38 133.831 156.38L134.542 156.38C134.621 156.38 134.7 156.419 134.7 156.538L134.7 163.883C134.7 163.962 134.66 164.041 134.542 164.041L133.831 164.041Z" fill="#939598" transform="matrix(1 0 0 1.00147 262.766 112.52)"/><path d="M142.44 163.409C141.966 163.962 141.255 164.159 140.15 164.159 139.004 164.159 138.372 163.962 137.899 163.409 137.385 162.817 137.03 161.553 137.03 160.131 137.03 158.67 137.346 157.565 137.899 156.972 138.372 156.419 139.044 156.222 140.189 156.222 141.334 156.222 142.006 156.419 142.479 156.972 142.993 157.565 143.309 158.67 143.309 160.131 143.269 161.553 142.953 162.817 142.44 163.409ZM138.688 162.975C138.965 163.251 139.241 163.37 140.11 163.37 141.058 163.37 141.334 163.251 141.611 162.975 142.045 162.54 142.243 161.435 142.243 160.171 142.243 158.868 142.045 157.88 141.611 157.446 141.334 157.17 141.058 157.051 140.15 157.051 139.202 157.051 138.925 157.17 138.649 157.446 138.215 157.88 138.017 158.868 138.017 160.171 138.057 161.435 138.254 162.54 138.688 162.975Z" fill="#939598" transform="matrix(1 0 0 1.00147 262.766 112.52)"/><path d="M151.088 158.71 151.088 163.883C151.088 163.962 151.049 164.041 150.93 164.041L150.219 164.041C150.14 164.041 150.061 164.001 150.061 163.883L150.061 158.789C150.061 157.446 149.706 157.012 148.126 157.012 147.534 157.012 146.942 157.051 146.626 157.13 146.507 157.17 146.468 157.17 146.468 157.288L146.468 163.883C146.468 163.962 146.428 164.041 146.31 164.041L145.599 164.041C145.52 164.041 145.441 164.001 145.441 163.883L145.441 156.656C145.441 156.577 145.481 156.538 145.599 156.498 146.389 156.34 147.416 156.222 148.126 156.222 150.377 156.222 151.088 156.775 151.088 158.71Z" fill="#939598" transform="matrix(1 0 0 1.00147 262.766 112.52)"/><path d="M156.696 164.159C153.813 164.159 153.221 162.382 153.221 160.171 153.221 157.92 153.932 156.222 156.301 156.222 158.67 156.222 159.105 157.604 159.105 159.5L159.105 159.816C159.105 160.368 158.986 160.447 158.749 160.447L154.366 160.447C154.287 160.447 154.287 160.487 154.287 160.566 154.287 162.619 155.037 163.37 156.933 163.37 157.565 163.37 158.275 163.212 158.71 163.014 158.828 162.975 158.907 162.975 158.907 163.093L158.947 163.607C158.947 163.686 158.907 163.725 158.828 163.764 158.236 164.041 157.525 164.159 156.696 164.159ZM154.326 159.697 157.959 159.697C158.078 159.697 158.117 159.658 158.117 159.184 158.117 157.762 157.723 157.012 156.261 157.012 154.603 157.012 154.208 158.236 154.208 159.579 154.247 159.658 154.287 159.697 154.326 159.697Z" fill="#939598" transform="matrix(1 0 0 1.00147 262.766 112.52)"/><path d="M164.396 164.159C161.514 164.159 160.921 162.382 160.921 160.171 160.921 157.92 161.632 156.222 164.001 156.222 166.371 156.222 166.805 157.604 166.805 159.5L166.805 159.816C166.805 160.368 166.687 160.447 166.45 160.447L162.066 160.447C161.987 160.447 161.987 160.487 161.987 160.566 161.987 162.619 162.738 163.37 164.633 163.37 165.265 163.37 165.976 163.212 166.41 163.014 166.529 162.975 166.608 162.975 166.608 163.093L166.647 163.607C166.647 163.686 166.608 163.725 166.529 163.764 165.976 164.041 165.226 164.159 164.396 164.159ZM162.066 159.697 165.699 159.697C165.818 159.697 165.857 159.658 165.857 159.184 165.857 157.762 165.463 157.012 164.001 157.012 162.343 157.012 161.948 158.236 161.948 159.579 161.987 159.658 161.987 159.697 162.066 159.697Z" fill="#939598" transform="matrix(1 0 0 1.00147 262.766 112.52)"/><path d="M169.096 156.498C169.806 156.34 170.517 156.222 171.189 156.222 171.662 156.222 172.018 156.222 172.334 156.301 172.373 156.301 172.413 156.34 172.413 156.419L172.334 157.091C172.334 157.13 172.294 157.17 172.215 157.17 171.899 157.13 171.544 157.051 171.149 157.051 170.833 157.051 170.359 157.091 170.043 157.209 169.925 157.249 169.925 157.288 169.925 157.367L169.925 163.883C169.925 164.001 169.885 164.041 169.767 164.041L169.056 164.041C168.977 164.041 168.898 164.001 168.898 163.883L168.898 156.656C168.938 156.577 169.017 156.538 169.096 156.498Z" fill="#939598" transform="matrix(1 0 0 1.00147 262.766 112.52)"/><path d="M173.992 154.761C173.913 154.761 173.834 154.721 173.834 154.603L173.834 153.655C173.834 153.576 173.874 153.497 173.992 153.497L174.861 153.497C174.94 153.497 175.019 153.537 175.019 153.655L175.019 154.603C175.019 154.682 174.98 154.761 174.861 154.761L173.992 154.761ZM174.071 164.041C173.992 164.041 173.913 164.001 173.913 163.883L173.913 156.538C173.913 156.459 173.953 156.38 174.071 156.38L174.782 156.38C174.861 156.38 174.94 156.419 174.94 156.538L174.94 163.883C174.94 163.962 174.901 164.041 174.782 164.041L174.071 164.041Z" fill="#939598" transform="matrix(1 0 0 1.00147 262.766 112.52)"/><path d="M183.154 158.71 183.154 163.883C183.154 163.962 183.115 164.041 182.996 164.041L182.285 164.041C182.206 164.041 182.127 164.001 182.127 163.883L182.127 158.789C182.127 157.446 181.772 157.012 180.192 157.012 179.6 157.012 179.008 157.051 178.692 157.13 178.573 157.17 178.534 157.17 178.534 157.288L178.534 163.883C178.534 163.962 178.494 164.041 178.376 164.041L177.704 164.041C177.625 164.041 177.546 164.001 177.546 163.883L177.546 156.656C177.546 156.577 177.586 156.538 177.704 156.498 178.494 156.34 179.521 156.222 180.232 156.222 182.483 156.222 183.154 156.775 183.154 158.71Z" fill="#939598" transform="matrix(1 0 0 1.00147 262.766 112.52)"/><path d="M191.091 163.922C191.091 166.094 190.065 166.608 188.13 166.608 187.34 166.608 186.274 166.489 185.681 166.292 185.602 166.252 185.602 166.173 185.602 166.134L185.681 165.62C185.721 165.542 185.8 165.502 185.879 165.542 186.353 165.699 187.34 165.818 188.011 165.818 189.749 165.818 190.065 165.344 190.065 163.607 190.065 163.528 190.025 163.488 189.946 163.488 189.591 163.528 188.999 163.607 188.604 163.607 186.037 163.607 185.286 162.659 185.286 159.973 185.286 157.367 186.155 156.222 188.604 156.222 189.275 156.222 190.144 156.301 190.934 156.459 191.052 156.498 191.091 156.538 191.091 156.617L191.091 163.922ZM189.986 162.698C190.104 162.659 190.104 162.619 190.104 162.501L190.104 157.328C190.104 157.249 190.104 157.17 189.986 157.17 189.709 157.091 189.156 157.051 188.643 157.051 186.906 157.051 186.432 157.683 186.432 159.934 186.432 162.185 186.787 162.856 188.683 162.856 189.275 162.856 189.709 162.817 189.986 162.698Z" fill="#939598" transform="matrix(1 0 0 1.00147 262.766 112.52)"/><path d="M196.186 160.21C196.186 157.446 197.054 156.222 199.582 156.222 200.056 156.222 200.569 156.301 200.845 156.34 200.924 156.34 200.964 156.301 200.964 156.222L200.964 153.616C200.964 153.537 201.003 153.458 201.122 153.458L201.833 153.458C201.912 153.458 201.991 153.497 201.991 153.616L201.991 163.725C201.991 163.804 201.951 163.843 201.833 163.883 201.201 164.041 200.451 164.159 199.621 164.159 196.818 164.159 196.186 162.896 196.186 160.21ZM200.924 157.407C200.924 157.288 200.924 157.249 200.806 157.209 200.53 157.13 200.016 157.051 199.542 157.051 197.686 157.051 197.212 157.762 197.212 160.21 197.212 162.58 197.647 163.37 199.542 163.37 200.016 163.37 200.49 163.33 200.766 163.251 200.885 163.212 200.885 163.133 200.885 163.054L200.885 157.407Z" fill="#939598" transform="matrix(1 0 0 1.00147 262.766 112.52)"/><path d="M204.637 154.761C204.558 154.761 204.479 154.721 204.479 154.603L204.479 153.655C204.479 153.576 204.518 153.497 204.637 153.497L205.505 153.497C205.584 153.497 205.663 153.537 205.663 153.655L205.663 154.603C205.663 154.682 205.624 154.761 205.505 154.761L204.637 154.761ZM204.715 164.041C204.637 164.041 204.558 164.001 204.558 163.883L204.558 156.538C204.558 156.459 204.597 156.38 204.715 156.38L205.426 156.38C205.505 156.38 205.584 156.419 205.584 156.538L205.584 163.883C205.584 163.962 205.545 164.041 205.426 164.041L204.715 164.041Z" fill="#939598" transform="matrix(1 0 0 1.00147 262.766 112.52)"/><path d="M213.759 163.922C213.759 166.094 212.732 166.608 210.797 166.608 210.007 166.608 208.941 166.489 208.349 166.292 208.27 166.252 208.27 166.173 208.27 166.134L208.349 165.62C208.388 165.542 208.467 165.502 208.546 165.542 209.02 165.699 210.007 165.818 210.678 165.818 212.416 165.818 212.732 165.344 212.732 163.607 212.732 163.528 212.692 163.488 212.613 163.488 212.258 163.528 211.666 163.607 211.271 163.607 208.704 163.607 207.954 162.659 207.954 159.973 207.954 157.367 208.822 156.222 211.271 156.222 211.942 156.222 212.811 156.301 213.601 156.459 213.719 156.498 213.759 156.538 213.759 156.617L213.759 163.922ZM212.613 162.698C212.732 162.659 212.732 162.619 212.732 162.501L212.732 157.328C212.732 157.249 212.732 157.17 212.613 157.17 212.337 157.091 211.784 157.051 211.271 157.051 209.533 157.051 209.059 157.683 209.059 159.934 209.059 162.185 209.415 162.856 211.31 162.856 211.903 162.856 212.377 162.817 212.613 162.698Z" fill="#939598" transform="matrix(1 0 0 1.00147 262.766 112.52)"/><path d="M216.444 154.761C216.365 154.761 216.286 154.721 216.286 154.603L216.286 153.655C216.286 153.576 216.326 153.497 216.444 153.497L217.313 153.497C217.392 153.497 217.471 153.537 217.471 153.655L217.471 154.603C217.471 154.682 217.431 154.761 217.313 154.761L216.444 154.761ZM216.523 164.041C216.444 164.041 216.365 164.001 216.365 163.883L216.365 156.538C216.365 156.459 216.404 156.38 216.523 156.38L217.234 156.38C217.313 156.38 217.392 156.419 217.392 156.538L217.392 163.883C217.392 163.962 217.352 164.041 217.234 164.041L216.523 164.041Z" fill="#939598" transform="matrix(1 0 0 1.00147 262.766 112.52)"/><path d="M221.775 164.159C220.669 164.159 220.393 163.567 220.393 162.738L220.393 157.288C220.393 157.249 220.353 157.209 220.314 157.209L219.129 157.209C219.05 157.209 218.971 157.17 218.971 157.051L218.971 156.538C218.971 156.459 219.011 156.38 219.129 156.38L220.314 156.38C220.353 156.38 220.393 156.34 220.393 156.301L220.393 154.524C220.393 154.445 220.432 154.366 220.551 154.366L221.262 154.366C221.341 154.366 221.42 154.405 221.42 154.524L221.42 156.301C221.42 156.34 221.459 156.38 221.499 156.38L222.841 156.38C222.92 156.38 222.999 156.419 222.999 156.538L222.999 157.051C222.999 157.13 222.96 157.209 222.841 157.209L221.499 157.209C221.459 157.209 221.42 157.249 221.42 157.288L221.42 162.58C221.42 163.251 221.538 163.409 222.131 163.409L222.683 163.409C222.762 163.409 222.841 163.449 222.841 163.528L222.841 163.922C222.841 164.001 222.802 164.08 222.723 164.08 222.486 164.12 222.131 164.159 221.775 164.159Z" fill="#939598" transform="matrix(1 0 0 1.00147 262.766 112.52)"/><path d="M225.053 157.249C224.974 157.249 224.895 157.249 224.895 157.17L224.816 156.696C224.816 156.617 224.816 156.538 224.895 156.498 225.448 156.34 226.198 156.222 227.027 156.222 228.804 156.222 229.555 156.893 229.555 158.552L229.555 163.725C229.555 163.843 229.515 163.922 229.397 163.962 228.962 164.08 228.133 164.159 227.304 164.159 224.934 164.159 224.223 163.646 224.223 162.066 224.223 160.724 224.539 159.973 226.593 159.776L228.528 159.579C228.567 159.579 228.607 159.539 228.607 159.46L228.607 158.67C228.607 157.407 228.172 157.012 226.869 157.012 226.237 157.051 225.487 157.17 225.053 157.249ZM228.567 160.526C228.567 160.487 228.528 160.447 228.488 160.447L226.909 160.447C225.566 160.447 225.211 160.803 225.211 161.987 225.211 163.172 225.566 163.449 227.185 163.449 227.62 163.449 228.212 163.409 228.409 163.37 228.528 163.33 228.567 163.33 228.567 163.251L228.567 160.526Z" fill="#939598" transform="matrix(1 0 0 1.00147 262.766 112.52)"/><path d="M233.464 164.159C232.358 164.159 232.042 163.725 232.042 162.303L232.042 153.655C232.042 153.576 232.082 153.497 232.2 153.497L232.911 153.497C232.99 153.497 233.069 153.537 233.069 153.655L233.069 162.303C233.069 163.133 233.188 163.37 233.78 163.37L234.372 163.37C234.451 163.37 234.491 163.409 234.491 163.488L234.451 163.922C234.451 164.001 234.412 164.041 234.333 164.041 234.096 164.12 233.82 164.159 233.464 164.159Z" fill="#939598" transform="matrix(1 0 0 1.00147 262.766 112.52)"/><path d="M244.64 159.973C244.64 162.738 243.81 164.041 241.283 164.041 240.888 164.041 240.296 164.001 239.98 163.962 239.901 163.962 239.861 163.962 239.861 164.08L239.861 166.489C239.861 166.568 239.822 166.647 239.704 166.647L238.993 166.647C238.914 166.647 238.835 166.608 238.835 166.489L238.835 156.696C238.835 156.617 238.874 156.577 238.993 156.538 239.625 156.419 240.414 156.261 241.204 156.261 244.008 156.222 244.64 157.249 244.64 159.973ZM239.901 162.935C239.901 163.054 239.901 163.093 240.019 163.133 240.375 163.172 240.809 163.251 241.244 163.251 243.1 163.251 243.574 162.422 243.574 159.973 243.574 157.644 243.06 157.051 241.244 157.051 240.691 157.051 240.296 157.091 240.019 157.17 239.901 157.209 239.901 157.288 239.901 157.367L239.901 162.935Z" fill="#939598" transform="matrix(1 0 0 1.00147 262.766 112.52)"/><path d="M247.404 157.249C247.325 157.249 247.246 157.249 247.246 157.17L247.167 156.696C247.167 156.617 247.167 156.538 247.246 156.498 247.799 156.34 248.549 156.222 249.379 156.222 251.156 156.222 251.906 156.893 251.906 158.552L251.906 163.725C251.906 163.843 251.866 163.922 251.748 163.962 251.314 164.08 250.484 164.159 249.655 164.159 247.286 164.159 246.575 163.646 246.575 162.066 246.575 160.724 246.891 159.973 248.944 159.776L250.879 159.579C250.919 159.579 250.958 159.539 250.958 159.46L250.958 158.67C250.958 157.407 250.524 157.012 249.221 157.012 248.589 157.051 247.838 157.17 247.404 157.249ZM250.919 160.526C250.919 160.487 250.879 160.447 250.84 160.447L249.26 160.447C247.917 160.447 247.562 160.803 247.562 161.987 247.562 163.172 247.917 163.449 249.536 163.449 249.971 163.449 250.563 163.409 250.761 163.37 250.879 163.33 250.919 163.33 250.919 163.251L250.919 160.526Z" fill="#939598" transform="matrix(1 0 0 1.00147 262.766 112.52)"/><path d="M256.21 164.159C255.105 164.159 254.828 163.567 254.828 162.738L254.828 157.288C254.828 157.249 254.789 157.209 254.749 157.209L253.564 157.209C253.485 157.209 253.406 157.17 253.406 157.051L253.406 156.538C253.406 156.459 253.446 156.38 253.564 156.38L254.749 156.38C254.789 156.38 254.828 156.34 254.828 156.301L254.828 154.524C254.828 154.445 254.868 154.366 254.986 154.366L255.697 154.366C255.776 154.366 255.855 154.405 255.855 154.524L255.855 156.301C255.855 156.34 255.894 156.38 255.934 156.38L257.276 156.38C257.355 156.38 257.434 156.419 257.434 156.538L257.434 157.051C257.434 157.13 257.395 157.209 257.276 157.209L255.934 157.209C255.894 157.209 255.855 157.249 255.855 157.288L255.855 162.58C255.855 163.251 255.973 163.409 256.566 163.409L257.119 163.409C257.198 163.409 257.276 163.449 257.276 163.528L257.276 163.922C257.276 164.001 257.237 164.08 257.158 164.08 256.882 164.12 256.526 164.159 256.21 164.159Z" fill="#939598" transform="matrix(1 0 0 1.00147 262.766 112.52)"/><path d="M259.093 156.498C259.804 156.34 260.515 156.222 261.186 156.222 261.66 156.222 262.015 156.222 262.331 156.301 262.371 156.301 262.41 156.34 262.41 156.419L262.331 157.091C262.331 157.13 262.292 157.17 262.213 157.17 261.897 157.13 261.541 157.051 261.146 157.051 260.831 157.051 260.357 157.091 260.041 157.209 259.922 157.249 259.922 157.288 259.922 157.367L259.922 163.883C259.922 164.001 259.883 164.041 259.764 164.041L259.054 164.041C258.975 164.041 258.896 164.001 258.896 163.883L258.896 156.656C258.935 156.577 259.014 156.538 259.093 156.498Z" fill="#939598" transform="matrix(1 0 0 1.00147 262.766 112.52)"/><path d="M268.729 163.409C268.255 163.962 267.544 164.159 266.438 164.159 265.293 164.159 264.661 163.962 264.187 163.409 263.674 162.817 263.318 161.553 263.318 160.131 263.318 158.67 263.634 157.565 264.187 156.972 264.661 156.419 265.332 156.222 266.478 156.222 267.623 156.222 268.294 156.419 268.768 156.972 269.281 157.565 269.597 158.67 269.597 160.131 269.558 161.553 269.242 162.817 268.729 163.409ZM264.977 162.975C265.253 163.251 265.53 163.37 266.399 163.37 267.346 163.37 267.623 163.251 267.899 162.975 268.294 162.54 268.531 161.435 268.531 160.171 268.531 158.868 268.334 157.88 267.899 157.446 267.623 157.17 267.346 157.051 266.438 157.051 265.49 157.051 265.214 157.17 264.938 157.446 264.503 157.88 264.306 158.868 264.306 160.171 264.345 161.435 264.543 162.54 264.977 162.975Z" fill="#939598" transform="matrix(1 0 0 1.00147 262.766 112.52)"/><path d="M277.377 158.71 277.377 163.883C277.377 163.962 277.337 164.041 277.219 164.041L276.508 164.041C276.429 164.041 276.35 164.001 276.35 163.883L276.35 158.789C276.35 157.446 275.995 157.012 274.415 157.012 273.823 157.012 273.23 157.051 272.914 157.13 272.796 157.17 272.757 157.17 272.757 157.288L272.757 163.883C272.757 163.962 272.717 164.041 272.599 164.041L271.888 164.041C271.809 164.041 271.73 164.001 271.73 163.883L271.73 156.656C271.73 156.577 271.769 156.538 271.888 156.498 272.678 156.34 273.704 156.222 274.415 156.222 276.666 156.222 277.377 156.775 277.377 158.71Z" fill="#939598" transform="matrix(1 0 0 1.00147 262.766 112.52)"/><path d="M280.299 157.249C280.22 157.249 280.141 157.249 280.141 157.17L280.062 156.696C280.062 156.617 280.062 156.538 280.141 156.498 280.694 156.34 281.444 156.222 282.274 156.222 284.051 156.222 284.801 156.893 284.801 158.552L284.801 163.725C284.801 163.843 284.761 163.922 284.643 163.962 284.209 164.08 283.379 164.159 282.55 164.159 280.181 164.159 279.47 163.646 279.47 162.066 279.47 160.724 279.786 159.973 281.839 159.776L283.774 159.579C283.814 159.579 283.853 159.539 283.853 159.46L283.853 158.67C283.853 157.407 283.419 157.012 282.116 157.012 281.484 157.051 280.773 157.17 280.299 157.249ZM283.814 160.526C283.814 160.487 283.774 160.447 283.735 160.447L282.155 160.447C280.812 160.447 280.457 160.803 280.457 161.987 280.457 163.172 280.812 163.449 282.432 163.449 282.866 163.449 283.458 163.409 283.656 163.37 283.774 163.33 283.814 163.33 283.814 163.251L283.814 160.526Z" fill="#939598" transform="matrix(1 0 0 1.00147 262.766 112.52)"/><path d="M292.857 163.922C292.857 166.094 291.83 166.608 289.895 166.608 289.105 166.608 288.039 166.489 287.447 166.292 287.368 166.252 287.368 166.173 287.368 166.134L287.447 165.62C287.486 165.542 287.565 165.502 287.644 165.542 288.118 165.699 289.105 165.818 289.777 165.818 291.514 165.818 291.83 165.344 291.83 163.607 291.83 163.528 291.791 163.488 291.712 163.488 291.356 163.528 290.764 163.607 290.369 163.607 287.802 163.607 287.052 162.659 287.052 159.973 287.052 157.367 287.921 156.222 290.369 156.222 291.04 156.222 291.909 156.301 292.699 156.459 292.817 156.498 292.857 156.538 292.857 156.617L292.857 163.922ZM291.712 162.698C291.83 162.659 291.83 162.619 291.83 162.501L291.83 157.328C291.83 157.249 291.83 157.17 291.712 157.17 291.435 157.091 290.882 157.051 290.369 157.051 288.631 157.051 288.158 157.683 288.158 159.934 288.158 162.185 288.513 162.856 290.409 162.856 291.001 162.856 291.475 162.817 291.712 162.698Z" fill="#939598" transform="matrix(1 0 0 1.00147 262.766 112.52)"/><path d="M298.543 164.159C295.661 164.159 295.068 162.382 295.068 160.171 295.068 157.92 295.779 156.222 298.148 156.222 300.518 156.222 300.952 157.604 300.952 159.5L300.952 159.816C300.952 160.368 300.834 160.447 300.597 160.447L296.174 160.447C296.095 160.447 296.095 160.487 296.095 160.566 296.095 162.619 296.845 163.37 298.741 163.37 299.373 163.37 300.084 163.212 300.518 163.014 300.636 162.975 300.715 162.975 300.715 163.093L300.755 163.607C300.755 163.686 300.715 163.725 300.636 163.764 300.084 164.041 299.373 164.159 298.543 164.159ZM296.174 159.697 299.807 159.697C299.926 159.697 299.965 159.658 299.965 159.184 299.965 157.762 299.57 157.012 298.109 157.012 296.45 157.012 296.056 158.236 296.056 159.579 296.095 159.658 296.095 159.697 296.174 159.697Z" fill="#939598" transform="matrix(1 0 0 1.00147 262.766 112.52)"/></g></g></g></svg>